<?xml version="1.0" encoding="UTF-8"?>
<svg version="1.1" xmlns="http://www.w3.org/2000/svg" width="1611" height="656">
<path d="M0 0 C531.63 0 1063.26 0 1611 0 C1611 216.48 1611 432.96 1611 656 C1079.37 656 547.74 656 0 656 C0 439.52 0 223.04 0 0 Z " fill="#201F1D" transform="translate(0,0)"/>
<path d="M0 0 C181.49446642 0 181.49446642 0 194.1875 5.1875 C194.95578125 5.49647217 195.7240625 5.80544434 196.515625 6.1237793 C214.57038841 13.64850673 227.24049687 28.49942868 234.86157227 46.23071289 C245.50069105 72.65747702 247.53779713 102.10865556 247.33618164 130.28588867 C247.31239463 133.82819182 247.31568085 137.36974524 247.32226562 140.91210938 C247.30253178 157.80413281 247.18602388 175.09183081 242.6875 191.5 C242.46803711 192.32765869 242.24857422 193.15531738 242.02246094 194.00805664 C236.71251146 213.42279681 226.7337785 228.77550107 209.61328125 239.65234375 C207.02580889 240.98669048 204.86799759 241.59176251 202 242 C202 242.66 202 243.32 202 244 C202.78375 244.061875 203.5675 244.12375 204.375 244.1875 C214.33576305 246.42008482 222.59565009 252.08054988 228.10302734 260.73291016 C239.97516001 281.09798049 241.3192471 303.429414 241.22705078 326.45117188 C241.22648528 328.45350641 241.22680594 330.45584136 241.22793579 332.45817566 C241.22850487 337.84345727 241.2168233 343.22864808 241.20278788 348.61390877 C241.19020566 354.26062676 241.18910415 359.9073473 241.18673706 365.55407715 C241.18054416 376.22439512 241.16416325 386.89467165 241.14403808 397.56497145 C241.11740928 411.99969535 241.10668872 426.43443075 241.09503365 440.86917305 C241.07628088 463.57947968 241.03642065 486.2896989 241 509 C207.67 509 174.34 509 140 509 C139.96261719 494.28019531 139.92523438 479.56039063 139.88671875 464.39453125 C139.85644064 455.06574581 139.82541516 445.73697277 139.79101562 436.40820312 C139.73656187 421.60328296 139.68514737 406.79839719 139.65356445 391.9934082 C139.63054699 381.21019774 139.59710705 370.42707781 139.55129844 359.6439392 C139.52741685 353.93756288 139.50865489 348.23127595 139.50238609 342.52485085 C139.49631235 337.14616184 139.47622996 331.7677014 139.44572449 326.38909721 C139.43698088 324.42241634 139.43321399 322.45570555 139.43499184 320.48900604 C139.86415261 299.89958889 139.86415261 299.89958889 131 282 C122.48166433 275.58310397 115.27684045 276.66334356 104 276 C104 352.89 104 429.78 104 509 C69.68 509 35.36 509 0 509 C0 341.03 0 173.06 0 0 Z " fill="#EDEAE0" transform="translate(346,77)"/>
<path d="M0 0 C57.09 0 114.18 0 173 0 C173.7457079 2.98283159 174.19531005 5.42425711 174.4296875 8.4375 C174.5011499 9.31704346 174.5726123 10.19658691 174.64624023 11.1027832 C174.72173096 12.05886475 174.79722168 13.01494629 174.875 14 C175.60127584 22.78717028 176.46664591 31.54913251 177.4375 40.3125 C178.7459102 52.18164968 179.83888199 64.06041585 180.82202148 75.96020508 C181.53381027 84.37220713 182.41227273 92.75316319 183.37109375 101.140625 C184.64072244 112.31529092 185.73368952 123.49947354 186.75390625 134.69921875 C186.86485941 135.91624324 186.86485941 135.91624324 186.97805405 137.15785408 C187.50985197 143.00074116 188.0366885 148.84407159 188.5625 154.6875 C189.09286962 160.58107417 189.62511043 166.47446822 190.16178703 172.36747169 C190.37109581 174.67559042 190.5772004 176.98397894 190.78309631 179.29240417 C191.48679226 187.08239664 192.31960685 194.84014894 193.31841564 202.59798336 C193.89922934 207.12120609 194.36951215 211.62484943 194.7109375 216.171875 C194.820089 217.57325961 194.92947379 218.97462607 195.0390625 220.37597656 C195.09352539 221.08757935 195.14798828 221.79918213 195.20410156 222.53234863 C196.22667237 235.80166568 197.48463541 249.02816162 199 262.25 C201.23505028 281.79304548 203.07768581 301.36032816 204.78125 320.95703125 C204.84682602 321.70893738 204.91240204 322.46084351 204.97996521 323.23553467 C205.29404243 326.83850625 205.60553508 330.44164701 205.91040039 334.04541016 C206.48403739 340.69503303 207.13598867 347.31949756 207.94311523 353.94482422 C208.9743344 362.57058668 209.8366948 371.20740234 210.65625 379.85546875 C210.80539531 381.41515991 210.95469095 382.9748367 211.10412598 384.53450012 C211.41444792 387.77720771 211.72359454 391.02002416 212.03173828 394.26293945 C212.42004874 398.34946884 212.81038761 402.43580095 213.20150757 406.5220623 C213.58296476 410.50813009 213.9635174 414.49428398 214.34375 418.48046875 C214.4173877 419.25233395 214.49102539 420.02419914 214.56689453 420.81945419 C215.27213057 428.22004687 215.97193278 435.62081483 216.62890625 443.02587891 C216.76552673 444.5640905 216.76552673 444.5640905 216.90490723 446.13337708 C217.06569591 447.95971285 217.2240526 449.78626539 217.37927246 451.61308289 C217.7184266 455.48281877 218.21068167 459.19279192 219 463 C219.26468318 465.32931594 219.50142849 467.66188269 219.71875 469.99609375 C219.78155151 470.66608902 219.84435303 471.33608429 219.90905762 472.02638245 C220.04137787 473.44414794 220.17241485 474.86203371 220.30224609 476.2800293 C220.49655177 478.39988023 220.69518222 480.51928995 220.89453125 482.63867188 C221.7107778 491.42213665 222.37120273 500.19683819 223 509 C190 509 157 509 123 509 C121.68 492.83 120.36 476.66 119 460 C118.34 453.73 117.68 447.46 117 441 C117 436.38 117 431.76 117 427 C97.86 427 78.72 427 59 427 C58.34 436.24 57.68 445.48 57 455 C56.13599659 466.03332353 56.13599659 466.03332353 55.67724609 471.50439453 C55.44331009 474.30324874 55.2162715 477.10265636 54.98950195 479.90209961 C54.16183845 489.63709132 53.08050777 499.27543006 52 509 C19 509 -14 509 -48 509 C-46.68524363 491.9081672 -45.27436319 474.86350603 -43.5625 457.8125 C-43.35584633 455.73635533 -43.14946641 453.66018339 -42.94335938 451.58398438 C-42.8404509 450.54753281 -42.73754242 449.51108124 -42.6315155 448.44322205 C-42.52752945 447.39590408 -42.4235434 446.34858612 -42.31640625 445.26953125 C-42.21084915 444.20791275 -42.10529205 443.14629425 -41.99653625 442.05250549 C-39.66666889 418.6036059 -37.45008337 395.14730301 -35.33923626 371.67785072 C-32.88780213 344.42350531 -30.38590909 317.17465773 -27.75 289.9375 C-27.63143646 288.70780487 -27.51287292 287.47810974 -27.39071655 286.21115112 C-26.14111015 273.27086757 -24.83428224 260.33890645 -23.43359375 247.4140625 C-22.36615853 237.5595444 -21.38241604 227.70428365 -20.52172852 217.82974243 C-18.49385087 194.64373011 -16.2376638 171.47895723 -14 148.3125 C-13.83085512 146.56029317 -13.66171644 144.80808574 -13.49258423 143.05587769 C-11.98153445 127.40499886 -10.46682922 111.75448329 -8.93408203 96.10571289 C-7.19490445 78.34588364 -5.46575926 60.5863755 -3.875 42.8125 C-3.7175873 41.06574264 -3.56003374 39.31899797 -3.40234375 37.57226562 C-2.93384371 32.38160452 -2.46707303 27.19079061 -2 22 C-1.34 14.74 -0.68 7.48 0 0 Z " fill="#EDEAE1" transform="translate(667,77)"/>
<path d="M0 0 C0.89642212 0.00370605 1.79284424 0.00741211 2.71643066 0.01123047 C36.48293114 0.20968891 65.44798481 9.51094427 90.625 32.4375 C91.63820313 33.32695313 91.63820313 33.32695313 92.671875 34.234375 C116.7181989 56.51583109 123.37083602 92.25396677 124.625 123.4375 C124.78340571 130.15511203 124.74278329 136.87480733 124.72265625 143.59375 C124.72118087 145.26529914 124.72016385 146.93684874 124.71960449 148.60839844 C124.7144206 154.71810613 124.70045982 160.82780385 124.6875 166.9375 C124.666875 180.6325 124.64625 194.3275 124.625 208.4375 C90.305 208.4375 55.985 208.4375 20.625 208.4375 C20.3125 164.1875 20.3125 164.1875 20.23706055 150.28027344 C20.20044238 146.12110602 20.20044238 146.12110602 20.1599884 141.9619751 C20.1439715 140.12754115 20.13359415 138.29305211 20.12788391 136.45855713 C20.38282693 116.89397058 20.38282693 116.89397058 12.625 99.4375 C8.09171059 95.98601829 3.50664954 94.81925666 -2.140625 95.12109375 C-7.59539341 95.89353473 -11.21635868 97.30460627 -15.1875 101.1875 C-21.81154162 111.02893326 -22.6775132 121.55769502 -22.63569641 133.11325073 C-22.63952196 134.24855575 -22.64334751 135.38386076 -22.64728898 136.55356896 C-22.65756128 140.336379 -22.65363778 144.11903562 -22.6496582 147.90185547 C-22.65291631 150.62274613 -22.65912785 153.3436284 -22.66514587 156.06451416 C-22.6778607 162.67527615 -22.6796906 169.28599747 -22.67734561 175.89676963 C-22.67555872 181.27305369 -22.67732002 186.64932546 -22.68157005 192.02560806 C-22.68216524 192.79233891 -22.68276043 193.55906976 -22.68337366 194.34903488 C-22.68458547 195.90691677 -22.68579961 197.46479865 -22.68701603 199.02268054 C-22.69787913 213.61506775 -22.69573488 228.20743181 -22.68963119 242.79982032 C-22.68446284 256.13155105 -22.69571748 269.46320869 -22.71472941 282.79492496 C-22.73412954 296.50461684 -22.74236001 310.21427419 -22.73860615 323.92397988 C-22.73669745 331.61265286 -22.73914941 339.30126364 -22.75332069 346.98992538 C-22.76526322 353.53525573 -22.7666073 360.0804856 -22.75453053 366.6258174 C-22.74866189 369.96106966 -22.74912882 373.29598865 -22.75953293 376.63125229 C-22.7700248 380.25693064 -22.76187951 383.88212081 -22.7492218 387.50778198 C-22.76028323 389.06764448 -22.76028323 389.06764448 -22.77156812 390.65901935 C-22.6917916 401.57526465 -20.81253398 412.06338767 -13.375 420.4375 C-8.17431113 424.52375554 -1.71180986 424.11458379 4.625 423.4375 C8.1297765 422.10764431 8.1297765 422.10764431 10.625 420.4375 C11.285 420.4375 11.945 420.4375 12.625 420.4375 C14.01226038 417.68164194 15.38163373 414.92044758 16.6875 412.125 C17.02910156 411.40699219 17.37070313 410.68898438 17.72265625 409.94921875 C20.04513509 403.48448329 19.79030251 396.60259295 19.83032227 389.82055664 C19.84022186 388.7759024 19.85012146 387.73124817 19.86032104 386.65493774 C19.89178226 383.21919991 19.91663245 379.78344827 19.94140625 376.34765625 C19.96198906 373.95869091 19.98298588 371.5697291 20.00437927 369.18077087 C20.05946282 362.90578073 20.10893242 356.63075847 20.15722656 350.35571289 C20.21639485 342.81986747 20.2825471 335.28408051 20.34752655 327.74828339 C20.44536338 316.31139142 20.53433763 304.87446123 20.625 293.4375 C54.945 293.4375 89.265 293.4375 124.625 293.4375 C124.74532643 320.00735792 124.74532643 320.00735792 124.77148438 331.46484375 C124.78931335 339.2368801 124.81024325 347.00880891 124.85131836 354.78076172 C124.88427655 361.05724631 124.90192868 367.33361535 124.90963173 373.6101799 C124.91511059 375.98676748 124.92580594 378.36334982 124.94219017 380.73988724 C125.18397093 417.31531651 120.04573051 453.75853286 95.625 482.4375 C95.01914062 483.24445313 94.41328125 484.05140625 93.7890625 484.8828125 C79.92372911 501.25091365 57.13701802 510.97374478 36.625 515.4375 C34.79195313 515.85515625 34.79195313 515.85515625 32.921875 516.28125 C12.00043426 520.54028358 -12.64846347 520.65868859 -33.375 515.4375 C-34.6826522 515.16343721 -35.99128518 514.89401895 -37.30078125 514.62890625 C-64.89616309 508.77157042 -89.86226045 492.05148715 -105.375 468.4375 C-119.01815294 446.97553564 -124.55471866 421.89142628 -124.50198364 396.7056427 C-124.50354363 395.55218548 -124.50510362 394.39872826 -124.50671089 393.21031779 C-124.51068728 389.36000666 -124.50754422 385.50973523 -124.50439453 381.65942383 C-124.50520018 378.89266885 -124.50749489 376.12591554 -124.50970459 373.35916138 C-124.51414324 366.63195942 -124.51319408 359.90476865 -124.51029195 353.17756627 C-124.5080295 347.70545531 -124.50772905 342.23334748 -124.50881577 336.76123619 C-124.508969 335.98107049 -124.50912223 335.20090479 -124.50928011 334.3970977 C-124.50959985 332.81192075 -124.50992407 331.22674379 -124.5102527 329.64156684 C-124.51310216 314.78731407 -124.50982933 299.93306748 -124.50445233 285.07881572 C-124.49998918 272.35584475 -124.50075723 259.63288291 -124.50537109 246.90991211 C-124.51073387 232.11495062 -124.5128229 217.31999455 -124.50975883 202.52503222 C-124.5094403 200.94430236 -124.50912593 199.3635725 -124.50881577 197.78284264 C-124.50866149 197.00522429 -124.50850721 196.22760594 -124.50834826 195.4264234 C-124.50748789 189.96864081 -124.50893573 184.51086167 -124.51129532 179.05307961 C-124.51411265 172.3903319 -124.51331468 165.72759596 -124.50801457 159.06484959 C-124.50540284 155.67071994 -124.50487581 152.2766259 -124.50766373 148.88249397 C-124.53261045 115.41334285 -124.53261045 115.41334285 -121.25 99.375 C-121.03190674 98.30644775 -120.81381348 97.23789551 -120.58911133 96.13696289 C-114.27226787 66.52003505 -101.37224634 36.35746694 -75.140625 19.1171875 C-66.58905528 13.92343753 -58.09532014 9.4113268 -48.625 6.125 C-47.98433594 5.89482178 -47.34367187 5.66464355 -46.68359375 5.42749023 C-31.64267067 0.52588922 -15.67845379 -0.11693249 0 0 Z " fill="#ECE8DF" transform="translate(181.375,71.5625)"/>
<path d="M0 0 C67.98 0 135.96 0 206 0 C206 32.67 206 65.34 206 99 C173 99 140 99 106 99 C106 131.34 106 163.68 106 197 C137.68 197 169.36 197 202 197 C202 229.34 202 261.68 202 295 C170.32 295 138.64 295 106 295 C106 333.61 106 372.22 106 412 C140.65 412 175.3 412 211 412 C211 444.34 211 476.68 211 510 C141.37 510 71.74 510 0 510 C0 341.7 0 173.4 0 0 Z " fill="#ECE9E0" transform="translate(1208,76)"/>
<path d="M0 0 C34.32 0 68.64 0 104 0 C104.06622966 49.40257005 104.12158619 98.80509798 104.15319599 148.20769978 C104.15694777 154.05008769 104.16083077 159.89247551 104.16479492 165.73486328 C104.16558185 166.89789821 104.16636878 168.06093313 104.16717956 169.25921154 C104.18020674 188.05090489 104.20384567 206.84257049 104.23145839 225.63424742 C104.25958758 244.93949343 104.27619209 264.24472499 104.28226548 283.54999065 C104.28636639 295.44680203 104.29928318 307.34353496 104.3237494 319.24032217 C104.33969951 327.41634179 104.34437955 335.59232129 104.34050413 343.76835531 C104.33859691 348.4740514 104.34136316 353.17961114 104.35761642 357.88528252 C104.49215319 398.90053809 102.47864054 441.65256301 74 474 C72.91332031 475.31871094 72.91332031 475.31871094 71.8046875 476.6640625 C53.54724207 498.0547989 27.29987732 508.93717029 0 513 C-1.19367188 513.185625 -2.38734375 513.37125 -3.6171875 513.5625 C-38.16449937 517.72336856 -75.05545858 510.8401805 -102.98828125 489.3984375 C-103.98214844 488.60695313 -104.97601562 487.81546875 -106 487 C-107.25876953 485.99839844 -107.25876953 485.99839844 -108.54296875 484.9765625 C-130.72923392 466.26525452 -142.44881939 437.41784819 -145 409 C-145.48106638 399.01165332 -145.36214623 389.00237415 -145.30418181 379.00537133 C-145.28516468 375.16043256 -145.2836452 371.31548331 -145.28010559 367.47050476 C-145.27085743 360.22142243 -145.24634391 352.97247917 -145.21605712 345.72345752 C-145.17594488 335.90531064 -145.15999967 326.08712453 -145.14255047 316.26891613 C-145.11451567 300.84584034 -145.05469888 285.42305772 -145 270 C-111.67 270 -78.34 270 -44 270 C-43.96261719 278.95640625 -43.92523437 287.9128125 -43.88671875 297.140625 C-43.85257365 303.5519911 -43.8165789 309.96332602 -43.77792263 316.37466431 C-43.72815034 324.67033251 -43.68267625 332.96594954 -43.65356445 341.26171875 C-43.6304932 347.83216249 -43.59699456 354.40245898 -43.55129844 360.97278571 C-43.52748834 364.44739655 -43.50868006 367.92186266 -43.50238609 371.39655304 C-43.49514036 375.28829293 -43.46460017 379.1796723 -43.43237305 383.07128906 C-43.43380814 384.20633881 -43.43524323 385.34138855 -43.4367218 386.51083374 C-43.31037532 397.36049494 -42.04582671 408.07337072 -34 416 C-28.68267897 420.05129221 -22.40607638 419.63443948 -16 419 C-11.00611617 417.36563802 -7.72030017 414.47252199 -5 410 C-1.93013383 402.89217709 -0.87846281 395.81024473 -0.8613348 388.09285164 C-0.85707147 387.08210563 -0.85707147 387.08210563 -0.85272202 386.05094051 C-0.84440545 383.79486299 -0.8431092 381.53883702 -0.84178162 379.28274536 C-0.8372142 377.64826966 -0.83221391 376.01379511 -0.82681805 374.37932193 C-0.81324805 369.88925892 -0.80582187 365.39920347 -0.79939139 360.90912533 C-0.79138246 356.06664075 -0.77768637 351.22417188 -0.76467896 346.38169861 C-0.74292322 337.99221413 -0.72477542 329.60272805 -0.70907402 321.21323013 C-0.68636719 309.0834049 -0.65822547 296.95359707 -0.62875474 284.8237866 C-0.58108882 265.14425084 -0.53782192 245.46470795 -0.49731445 225.78515625 C-0.45795444 206.66763759 -0.416527 187.55012526 -0.37231445 168.43261719 C-0.36822804 166.66518682 -0.36822804 166.66518682 -0.36405908 164.86205079 C-0.35037952 158.95096637 -0.33665926 153.03988205 -0.32291877 147.12879777 C-0.2089697 98.08587758 -0.10296602 49.04294472 0 0 Z " fill="#EDEAE1" transform="translate(1060,76)"/>
<path d="M0 0 C34.32 0 68.64 0 104 0 C104.0625 42 104.0625 42 104.02758789 55.2265625 C104.05079952 59.16360975 104.05079952 59.16360975 104.08323669 63.10058594 C104.09319729 64.84437485 104.08952796 66.58827596 104.07481384 68.33203125 C103.55525314 79.96045892 103.55525314 79.96045892 108.34960938 90.08007812 C111.39837399 92.82667439 114.68992772 94.81569785 118.4375 96.5 C119.48808594 96.9846875 120.53867188 97.469375 121.62109375 97.96875 C122.40613281 98.3090625 123.19117188 98.649375 124 99 C124 99.66 124 100.32 124 101 C123.21496094 101.3403125 122.42992187 101.680625 121.62109375 102.03125 C110.73574938 107.05320028 105.17844446 112.78827324 101 124 C100.34 124 99.68 124 99 124 C98.6596875 123.21496094 98.319375 122.42992187 97.96875 121.62109375 C92.94679972 110.73574938 87.21172676 105.17844446 76 101 C76 100.34 76 99.68 76 99 C76.79664063 98.64808594 77.59328125 98.29617188 78.4140625 97.93359375 C79.47367188 97.43988281 80.53328125 96.94617188 81.625 96.4375 C82.66914062 95.96183594 83.71328125 95.48617187 84.7890625 94.99609375 C88.89489851 92.66718429 88.89489851 92.66718429 94 86 C62.98 86 31.96 86 0 86 C0 57.62 0 29.24 0 0 Z " fill="#F7BE16" transform="translate(1455,500)"/>
<path d="M0 0 C0.66 0 1.32 0 2 0 C4.51558398 17.65001865 6.1980705 35.33857185 7.68844223 53.09799576 C8.00686313 56.87776028 8.33148403 60.65699254 8.65551758 64.4362793 C9.18516255 70.62134026 9.71179266 76.8066498 10.23583984 82.9921875 C11.37477314 96.43328949 12.53062855 109.87293097 13.6875 123.3125 C13.79156158 124.52332245 13.89562317 125.7341449 14.00283813 126.98165894 C15.35342454 142.68979948 16.75242872 158.39109397 18.25 174.0859375 C19.82341563 190.59383389 21.30642303 207.11040289 22.78717041 223.62683105 C22.92228607 225.13344622 23.05763459 226.64004053 23.19329834 228.14660645 C23.55272059 232.13880002 23.90456468 236.13157306 24.25 240.125 C24.33000244 241.01638672 24.41000488 241.90777344 24.49243164 242.82617188 C24.98123159 248.61247578 25 254.14385123 25 260 C10.81 260 -3.38 260 -18 260 C-18 251.90165249 -17.92197221 244.05473679 -17.30078125 236.01953125 C-17.2257135 234.99810028 -17.15064575 233.97666931 -17.07330322 232.92428589 C-16.82433121 229.55332844 -16.56847807 226.18293209 -16.3125 222.8125 C-16.13170593 220.38585141 -15.95129576 217.9591742 -15.77124023 215.5324707 C-15.28707539 209.02684616 -14.79654539 202.52171473 -14.30395508 196.01672363 C-14.00163189 192.02392972 -13.70089827 188.03101693 -13.40039062 184.03808594 C-12.10504175 166.82939389 -10.79843929 149.62156714 -9.48824787 132.41399956 C-5.92952175 85.76179777 -5.92952175 85.76179777 -2.43829346 39.10452271 C-2.3165283 37.46065366 -2.19413459 35.81683101 -2.07098389 34.17306519 C-1.21924253 22.78911502 -0.56320789 11.40181337 0 0 Z " fill="#23221F" transform="translate(751,163)"/>
<path d="M0 0 C34.32 0 68.64 0 104 0 C104.0625 42 104.0625 42 104.02758789 55.2265625 C104.05079952 59.16360975 104.05079952 59.16360975 104.08323669 63.10058594 C104.09319729 64.84437485 104.08952796 66.58827596 104.07481384 68.33203125 C103.55525314 79.96045892 103.55525314 79.96045892 108.34960938 90.08007812 C111.39837399 92.82667439 114.68992772 94.81569785 118.4375 96.5 C119.48808594 96.9846875 120.53867188 97.469375 121.62109375 97.96875 C122.40613281 98.3090625 123.19117188 98.649375 124 99 C124 99.66 124 100.32 124 101 C123.21496094 101.3403125 122.42992187 101.680625 121.62109375 102.03125 C110.73574938 107.05320028 105.17844446 112.78827324 101 124 C100.34 124 99.68 124 99 124 C98.6596875 123.21496094 98.319375 122.42992187 97.96875 121.62109375 C92.94679972 110.73574938 87.21172676 105.17844446 76 101 C76 100.34 76 99.68 76 99 C76.79664063 98.64808594 77.59328125 98.29617188 78.4140625 97.93359375 C79.47367188 97.43988281 80.53328125 96.94617188 81.625 96.4375 C82.66914062 95.96183594 83.71328125 95.48617187 84.7890625 94.99609375 C88.89489851 92.66718429 88.89489851 92.66718429 94 86 C62.98 86 31.96 86 0 86 C0 57.62 0 29.24 0 0 Z M1 2 C1.33 18.83 1.66 35.66 2 53 C2.66 53 3.32 53 4 53 C4.66 52.01 5.32 51.02 6 50 C6.66 50.99 7.32 51.98 8 53 C8.66 53 9.32 53 10 53 C11.19988045 47.71800407 11.19988045 47.71800407 9 43 C9.99 43 10.98 43 12 43 C12 44.98 12 46.96 12 49 C13.98 48.01 15.96 47.02 18 46 C18 45.01 18 44.02 18 43 C18.66 43 19.32 43 20 43 C19.97679687 43.69867187 19.95359375 44.39734375 19.9296875 45.1171875 C19.91164063 46.02726563 19.89359375 46.93734375 19.875 47.875 C19.85179687 48.77992188 19.82859375 49.68484375 19.8046875 50.6171875 C19.75675164 53.18806994 19.75675164 53.18806994 22 55 C22 54.34 22 53.68 22 53 C22.66 53 23.32 53 24 53 C24 52.34 24 51.68 24 51 C24.99 50.505 24.99 50.505 26 50 C25.34 49.01 24.68 48.02 24 47 C25.485 47.495 25.485 47.495 27 48 C29.36522558 47.07796291 31.70401807 46.08301035 34 45 C34 44.34 34 43.68 34 43 C36.97 42.505 36.97 42.505 40 42 C40 42.99 40 43.98 40 45 C40.66 45 41.32 45 42 45 C41.67 43.35 41.34 41.7 41 40 C39.35 40 37.7 40 36 40 C35.505 36.535 35.505 36.535 35 33 C36.32 32.67 37.64 32.34 39 32 C39 32.99 39 33.98 39 35 C39.66 34.67 40.32 34.34 41 34 C40.505 33.01 40.505 33.01 40 32 C40.99 32.33 41.98 32.66 43 33 C42.67 33.66 42.34 34.32 42 35 C42.99 35.33 43.98 35.66 45 36 C45.66 36.37125 46.32 36.7425 47 37.125 C49.13768978 38.32630592 49.13768978 38.32630592 52 37 C51.34 38.65 50.68 40.3 50 42 C55.47717768 43.82985697 55.47717768 43.82985697 61 43 C61.16852247 44.60397277 61.33474886 46.2081869 61.5 47.8125 C61.5928125 48.70582031 61.685625 49.59914063 61.78125 50.51953125 C62 53 62 53 62 56 C59.03 55.505 59.03 55.505 56 55 C58.475 54.505 58.475 54.505 61 54 C60.67 53.34 60.34 52.68 60 52 C56.72933434 51.91293108 53.45896635 51.85958759 50.1875 51.8125 C48.7943457 51.77479492 48.7943457 51.77479492 47.37304688 51.73632812 C46.48037109 51.72666016 45.58769531 51.71699219 44.66796875 51.70703125 C43.43469849 51.68346558 43.43469849 51.68346558 42.17651367 51.65942383 C39.46676893 52.08343885 38.6434649 52.84123544 37 55 C36.67 55.99 36.34 56.98 36 58 C36.66 58 37.32 58 38 58 C38 59.65 38 61.3 38 63 C38.66 63 39.32 63 40 63 C42.29648649 60.4385343 43 59.52032428 43 56 C43.66 56 44.32 56 45 56 C45 56.66 45 57.32 45 58 C45.66 58 46.32 58 47 58 C47.66 57.01 48.32 56.02 49 55 C49.33 55.33 49.66 55.66 50 56 C49.34 56.66 48.68 57.32 48 58 C48.99 58 49.98 58 51 58 C50.34 59.32 49.68 60.64 49 62 C47.68 62 46.36 62 45 62 C45 62.66 45 63.32 45 64 C46.65 64.33 48.3 64.66 50 65 C50.33 66.65 50.66 68.3 51 70 C51.66 69.34 52.32 68.68 53 68 C53 66.68 53 65.36 53 64 C53.66 64 54.32 64 55 64 C55 62.02 55 60.04 55 58 C57.31 58.33 59.62 58.66 62 59 C62 59.99 62 60.98 62 62 C61.34 62 60.68 62 60 62 C60 61.01 60 60.02 60 59 C58.02 59.495 58.02 59.495 56 60 C56.66 60.66 57.32 61.32 58 62 C57.34 62.66 56.68 63.32 56 64 C59.1964086 65.06546953 61.65747276 65.07427838 65 65 C65.33 65.66 65.66 66.32 66 67 C66.66 67 67.32 67 68 67 C68.66 65.35 69.32 63.7 70 62 C72.02045442 62.60183749 74.02111039 63.27306096 76 64 C76.33 64.66 76.66 65.32 77 66 C77.78375 65.01 78.5675 64.02 79.375 63 C80.24125 62.01 81.1075 61.02 82 60 C82.66 60 83.32 60 84 60 C84.495 59.01 84.495 59.01 85 58 C85.86625 58.2784375 85.86625 58.2784375 86.75 58.5625 C90.707349 59.33198453 92.68272593 58.21151604 96 56 C97.65549531 55.61500109 99.3222433 55.27206865 101 55 C100.67 55.99 100.34 56.98 100 58 C99.93029948 60.39490986 99.91551997 62.79167691 99.9375 65.1875 C99.94652344 66.45980469 99.95554687 67.73210937 99.96484375 69.04296875 C99.97644531 70.01878906 99.98804688 70.99460937 100 72 C100.66 72 101.32 72 102 72 C102 48.9 102 25.8 102 2 C68.67 2 35.34 2 1 2 Z M37 44 C37 44.66 37 45.32 37 46 C36.01 46.33 35.02 46.66 34 47 C35.32 47.33 36.64 47.66 38 48 C38.66 47.01 39.32 46.02 40 45 C39.01 44.67 38.02 44.34 37 44 Z M46 31 C46.66 31 47.32 31 48 31 C48.33 32.32 48.66 33.64 49 35 C48.01 34.67 47.02 34.34 46 34 C46 33.01 46 32.02 46 31 Z " fill="#F5BB14" transform="translate(1455,500)"/>
<path d="M0 0 C25 0 25 0 34 4 C47.36252316 18.52448169 43.64887074 44.63215152 43 63 C42.25031503 73.92837873 40.03215045 86.05924577 31.9375 94.03125 C21.62871128 102.06604121 15.93143138 99 0 99 C0 66.33 0 33.66 0 0 Z " fill="#21201E" transform="translate(450,168)"/>
<path d="M0 0 C34.32 0 68.64 0 104 0 C104.0625 42 104.0625 42 104.02758789 55.2265625 C104.05079952 59.16360975 104.05079952 59.16360975 104.08323669 63.10058594 C104.09319729 64.84437485 104.08952796 66.58827596 104.07481384 68.33203125 C103.55525314 79.96045892 103.55525314 79.96045892 108.34960938 90.08007812 C111.39837399 92.82667439 114.68992772 94.81569785 118.4375 96.5 C119.48808594 96.9846875 120.53867188 97.469375 121.62109375 97.96875 C122.40613281 98.3090625 123.19117188 98.649375 124 99 C124 99.66 124 100.32 124 101 C123.21496094 101.3403125 122.42992187 101.680625 121.62109375 102.03125 C110.73574938 107.05320028 105.17844446 112.78827324 101 124 C100.34 124 99.68 124 99 124 C98.6596875 123.21496094 98.319375 122.42992187 97.96875 121.62109375 C92.94679972 110.73574938 87.21172676 105.17844446 76 101 C76 100.34 76 99.68 76 99 C76.79664063 98.64808594 77.59328125 98.29617188 78.4140625 97.93359375 C79.47367188 97.43988281 80.53328125 96.94617188 81.625 96.4375 C82.66914062 95.96183594 83.71328125 95.48617187 84.7890625 94.99609375 C88.89489851 92.66718429 88.89489851 92.66718429 94 86 C62.98 86 31.96 86 0 86 C0 57.62 0 29.24 0 0 Z M1 2 C1.33 20.15 1.66 38.3 2 57 C2.99 57 3.98 57 5 57 C5.66 57 6.32 57 7 57 C7 56.34 7 55.68 7 55 C7.99 55 8.98 55 10 55 C10 55.66 10 56.32 10 57 C10.66 57 11.32 57 12 57 C12.12375 56.360625 12.2475 55.72125 12.375 55.0625 C12.58125 54.381875 12.7875 53.70125 13 53 C13.99 52.505 13.99 52.505 15 52 C15 52.66 15 53.32 15 54 C14.34 54 13.68 54 13 54 C13.66 56.31 14.32 58.62 15 61 C14.34 61 13.68 61 13 61 C12.67 60.34 12.34 59.68 12 59 C11.01 59 10.02 59 9 59 C8.67 60.32 8.34 61.64 8 63 C8.99 63 9.98 63 11 63 C11.33 63.66 11.66 64.32 12 65 C12.99 64.505 12.99 64.505 14 64 C14 65.65 14 67.3 14 69 C14.99 69.33 15.98 69.66 17 70 C17.66 69.01 18.32 68.02 19 67 C20.485 67.495 20.485 67.495 22 68 C21.71125 68.69867187 21.4225 69.39734375 21.125 70.1171875 C20.568125 71.48230469 20.568125 71.48230469 20 72.875 C19.62875 73.77992188 19.2575 74.68484375 18.875 75.6171875 C17.88509774 77.88983858 17.88509774 77.88983858 18 80 C19.98 80 21.96 80 24 80 C24 80.66 24 81.32 24 82 C27.34249629 81.40312566 29.46436342 80.26396123 32 78 C32 77.34 32 76.68 32 76 C34.31 76 36.62 76 39 76 C39.33 76.99 39.66 77.98 40 79 C40 78.01 40 77.02 40 76 C40.66 76 41.32 76 42 76 C42 78.31 42 80.62 42 83 C44.20826378 83.02722517 46.41662638 83.04649729 48.625 83.0625 C49.85476563 83.07410156 51.08453125 83.08570313 52.3515625 83.09765625 C55.93837085 83.08559164 55.93837085 83.08559164 59.1875 82.46875 C63.04386472 81.82602255 66.15285724 82.40302957 70 83 C70 82.34 70 81.68 70 81 C71.485 81.99 71.485 81.99 73 83 C75.27261478 83.29113664 75.27261478 83.29113664 77.78125 83.23046875 C79.16763672 83.22756836 79.16763672 83.22756836 80.58203125 83.22460938 C82.02642578 83.20624023 82.02642578 83.20624023 83.5 83.1875 C84.46292969 83.18685547 85.42585938 83.18621094 86.41796875 83.18554688 C91.79531947 83.18798748 91.79531947 83.18798748 97 82 C98.22520264 78.99152582 98.22520264 78.99152582 99 76 C99.66 76 100.32 76 101 76 C102.16035505 72.51893486 102.12002704 69.8152767 102.11352539 66.1418457 C102.11364593 65.43771892 102.11376646 64.73359213 102.11389065 64.00812817 C102.11314473 61.73064698 102.10553109 59.45324779 102.09765625 57.17578125 C102.09618584 55.76900268 102.09516574 54.36222356 102.09460449 52.95544434 C102.08936311 47.74112121 102.0754019 42.5268098 102.0625 37.3125 C102.0315625 19.8328125 102.0315625 19.8328125 102 2 C68.67 2 35.34 2 1 2 Z " fill="#F5BD19" transform="translate(1455,500)"/>
<path d="M0 0 C4.65959341 3.99251487 9.26164498 6.84811687 15 9 C15 9.66 15 10.32 15 11 C14.21496094 11.3403125 13.42992187 11.680625 12.62109375 12.03125 C1.73574938 17.05320028 -3.82155554 22.78827324 -8 34 C-8.66 34 -9.32 34 -10 34 C-10.3403125 33.21496094 -10.680625 32.42992187 -11.03125 31.62109375 C-16.05320028 20.73574938 -21.78827324 15.17844446 -33 11 C-33 10.34 -33 9.68 -33 9 C-32.20335937 8.64808594 -31.40671875 8.29617188 -30.5859375 7.93359375 C-23.35240962 4.69567866 -23.35240962 4.69567866 -17.875 -0.8125 C-15.54726209 -3.91384813 -13.77326239 -4.65858289 -9.9375 -5.25 C-4.83992678 -5.40953657 -3.22661328 -3.99081116 0 0 Z " fill="#8D8C8A" transform="translate(1564,590)"/>
<path d="M0 0 C34.32 0 68.64 0 104 0 C104 28.38 104 56.76 104 86 C69.68 86 35.36 86 0 86 C0 57.62 0 29.24 0 0 Z M1 2 C1 29.39 1 56.78 1 85 C32.35 85 63.7 85 96 85 C96.99 82.03 97.98 79.06 99 76 C99.66 76 100.32 76 101 76 C102.16035505 72.51893486 102.12002704 69.8152767 102.11352539 66.1418457 C102.11364593 65.43771892 102.11376646 64.73359213 102.11389065 64.00812817 C102.11314473 61.73064698 102.10553109 59.45324779 102.09765625 57.17578125 C102.09618584 55.76900268 102.09516574 54.36222356 102.09460449 52.95544434 C102.08936311 47.74112121 102.0754019 42.5268098 102.0625 37.3125 C102.0315625 19.8328125 102.0315625 19.8328125 102 2 C68.67 2 35.34 2 1 2 Z " fill="#E3BB46" transform="translate(1455,500)"/>
<path d="M0 0 C1.06121567 -0.00095673 2.12243134 -0.00191345 3.21580505 -0.00289917 C5.46898457 -0.0035768 7.72216608 -0.00175175 9.9753418 0.00244141 C13.25509661 0.00762903 16.53470352 0.00257104 19.81445312 -0.00390625 C41.16842247 0.00857051 62.44173312 0.62407772 83.80859375 1.1328125 C83.80859375 29.8428125 83.80859375 58.5528125 83.80859375 88.1328125 C83.47859375 88.1328125 83.14859375 88.1328125 82.80859375 88.1328125 C82.80859375 60.0828125 82.80859375 32.0328125 82.80859375 3.1328125 C48.48859375 3.1328125 14.16859375 3.1328125 -21.19140625 3.1328125 C-21.19140625 31.5128125 -21.19140625 59.8928125 -21.19140625 89.1328125 C-21.52140625 89.1328125 -21.85140625 89.1328125 -22.19140625 89.1328125 C-22.19140625 60.0928125 -22.19140625 31.0528125 -22.19140625 1.1328125 C-14.69697455 0.45150053 -7.48647511 -0.0156105 0 0 Z " fill="#453103" transform="translate(1476.19140625,496.8671875)"/>
<path d="M0 0 C0.33 0 0.66 0 1 0 C1 28.38 1 56.76 1 86 C32.35 86 63.7 86 96 86 C95.01 87.98 95.01 87.98 94 90 C92.85934082 89.99476318 91.71868164 89.98952637 90.54345703 89.98413086 C86.32048321 89.96606131 82.09751282 89.95456081 77.87451172 89.94506836 C76.04507879 89.94003263 74.21564991 89.93320373 72.38623047 89.92456055 C69.76008102 89.91246176 67.13398468 89.90676417 64.5078125 89.90234375 C63.68693146 89.89718246 62.86605042 89.89202118 62.02029419 89.88670349 C57.87788156 89.77648126 57.87788156 89.77648126 54 91 C54 90.34 54 89.68 54 89 C53.35298126 89.00222061 52.70596252 89.00444122 52.03933716 89.00672913 C45.32391917 89.02879968 38.60851144 89.04391404 31.89306641 89.05493164 C29.38459861 89.05997003 26.87613376 89.06680084 24.36767578 89.07543945 C20.7685473 89.08752661 17.16945753 89.09323315 13.5703125 89.09765625 C11.87964157 89.10539818 11.87964157 89.10539818 10.15481567 89.11329651 C9.11388763 89.11337204 8.07295959 89.11344757 7.00048828 89.11352539 C6.08115509 89.115746 5.1618219 89.11796661 4.21463013 89.12025452 C2 89 2 89 0 88 C-0.95540207 82.56647359 -1.12092861 77.2597294 -1.02172852 71.74804688 C-1.01212097 70.96659302 -1.00251343 70.18513916 -0.99261475 69.38000488 C-0.95993219 66.82615247 -0.91948542 64.27248807 -0.87890625 61.71875 C-0.85457498 59.93657064 -0.83073298 58.15438454 -0.80735779 56.37219238 C-0.74481583 51.70329045 -0.67566606 47.03450932 -0.60510254 42.36572266 C-0.53414753 37.59282894 -0.46949368 32.81985023 -0.40429688 28.046875 C-0.27567035 18.69782323 -0.14005734 9.34888703 0 0 Z " fill="#261903" transform="translate(1453,500)"/>
<path d="M0 0 C0.33 0 0.66 0 1 0 C1 29.04 1 58.08 1 88 C-32.66 88 -66.32 88 -101 88 C-100.505 87.01 -100.505 87.01 -100 86 C-50.5 86.495 -50.5 86.495 0 87 C0 83.37 0 79.74 0 76 C-0.99 76 -1.98 76 -3 76 C-2.505 74.515 -2.505 74.515 -2 73 C-1.34 73 -0.68 73 0 73 C0 48.91 0 24.82 0 0 Z " fill="#F9F7F0" transform="translate(304,191)"/>
<path d="M0 0 C0.33 0 0.66 0 1 0 C1.01030746 0.82019119 1.02061493 1.64038239 1.03123474 2.48542786 C1.12916489 10.21054144 1.23167296 17.93557421 1.33933926 25.66055775 C1.39453115 29.63215685 1.44794518 33.60376337 1.49731445 37.57543945 C1.54501308 41.40747682 1.59735789 45.23942499 1.65294075 49.07135582 C1.67333938 50.53417429 1.69205658 51.9970172 1.70907402 53.45987892 C1.73317327 55.50695255 1.76322008 57.55385816 1.79467773 59.60083008 C1.81022202 60.76665115 1.8257663 61.93247223 1.84178162 63.13362122 C1.87774629 66.07234101 1.87774629 66.07234101 3 69 C2.67 70.32 2.34 71.64 2 73 C32.69 73.33 63.38 73.66 95 74 C95 74.33 95 74.66 95 75 C63.65 75 32.3 75 0 75 C0 50.25 0 25.5 0 0 Z " fill="#ECBD32" transform="translate(1456,510)"/>
<path d="M0 0 C0.33 1.32 0.66 2.64 1 4 C3.97 4 6.94 4 10 4 C9.01 5.65 8.02 7.3 7 9 C7.99 9.66 8.98 10.32 10 11 C6.01217564 12.32927479 2.36258371 12.1841626 -1.8125 12.1875 C-2.60720703 12.19974609 -3.40191406 12.21199219 -4.22070312 12.22460938 C-8.85241303 12.23610245 -12.6931847 11.92232658 -17 10 C-18.375 7.875 -18.375 7.875 -19 6 C-18.34 5.67 -17.68 5.34 -17 5 C-14.97481509 5.9479589 -12.97522846 6.95191959 -11 8 C-10.01 8.33 -9.02 8.66 -8 9 C-7.79375 8.2575 -7.5875 7.515 -7.375 6.75 C-5.60384411 3.20768823 -3.36572049 1.97553159 0 0 Z " fill="#EBE8DE" transform="translate(1374,574)"/>
<path d="M0 0 C33.33 0 66.66 0 101 0 C101 0.66 101 1.32 101 2 C99.85852005 1.99555878 98.7170401 1.99111755 97.54096985 1.98654175 C86.78503757 1.94600316 76.02912079 1.91601917 65.27312946 1.89637566 C59.74333322 1.88593726 54.21359864 1.87177694 48.68383789 1.84912109 C43.34759604 1.82739486 38.01141351 1.81543179 32.67513084 1.81024551 C30.63896946 1.80654938 28.60281133 1.79933181 26.56667519 1.78853989 C23.71535849 1.77402801 20.86428712 1.77202195 18.01293945 1.77294922 C16.74950211 1.76216339 16.74950211 1.76216339 15.46054077 1.75115967 C11.22844897 1.76605823 7.79906283 1.89484957 4 4 C2.65589738 6.01735205 2.65589738 6.01735205 2 8 C2.99 8 3.98 8 5 8 C4.67 10.64 4.34 13.28 4 16 C3.01 16.33 2.02 16.66 1 17 C0.67 11.39 0.34 5.78 0 0 Z " fill="#F4BF23" transform="translate(1456,502)"/>
<path d="M0 0 C32.67 0 65.34 0 99 0 C99 0.33 99 0.66 99 1 C98.24074219 1.04898438 97.48148438 1.09796875 96.69921875 1.1484375 C95.20841797 1.26058594 95.20841797 1.26058594 93.6875 1.375 C92.20830078 1.47941406 92.20830078 1.47941406 90.69921875 1.5859375 C87.78471567 1.83865472 87.78471567 1.83865472 85 4 C84.01 4 83.02 4 82 4 C82 3.34 82 2.68 82 2 C79.36 2.66 76.72 3.32 74 4 C74.33 3.34 74.66 2.68 75 2 C74.38025803 2 73.76051605 2 73.12199402 2 C21.87341772 2 21.87341772 2 17.40234375 1.96484375 C15.58073011 1.95554302 13.75911547 1.94643575 11.9375 1.9375 C11.01388672 1.92912109 10.09027344 1.92074219 9.13867188 1.91210938 C8.25630859 1.90888672 7.37394531 1.90566406 6.46484375 1.90234375 C5.656521 1.89710693 4.84819824 1.89187012 4.01538086 1.88647461 C1.92882336 1.87050379 1.92882336 1.87050379 0 3 C0 2.01 0 1.02 0 0 Z " fill="#0B0A06" transform="translate(1315,175)"/>
<path d="M0 0 C0.33 0 0.66 0 1 0 C1 28.05 1 56.1 1 85 C-1.97 85 -4.94 85 -8 85 C-6.68 81.7 -5.36 78.4 -4 75 C-3.34 75 -2.68 75 -2 75 C-1.67 75.66 -1.34 76.32 -1 77 C-0.67 51.59 -0.34 26.18 0 0 Z " fill="#E7C056" transform="translate(1558,501)"/>
<path d="M0 0 C31.35 0 62.7 0 95 0 C95 0.33 95 0.66 95 1 C83.94907292 1.71931331 72.95921589 2.13797395 61.88501358 2.07516479 C59.55532175 2.06206425 57.22568859 2.05580502 54.89596558 2.05102539 C49.97228313 2.03978758 45.04865153 2.02047006 40.125 2 C34.36191046 1.97629965 28.59884686 1.95601734 22.83572006 1.94406128 C20.54678402 1.93760984 18.25793289 1.92512011 15.96902466 1.91235352 C14.57196118 1.90872287 13.17489694 1.90537091 11.77783203 1.90234375 C10.5619339 1.89710693 9.34603577 1.89187012 8.09329224 1.88647461 C5.52080464 1.98088621 3.4403057 2.23542915 1 3 C1.185625 3.515625 1.37125 4.03125 1.5625 4.5625 C2.15419517 7.85908739 1.567267 10.72245735 1 14 C0.67 14 0.34 14 0 14 C0 9.38 0 4.76 0 0 Z " fill="#0A0905" transform="translate(1315,371)"/>
<path d="M0 0 C18.81 0 37.62 0 57 0 C57 2.31 57 4.62 57 7 C56.505 5.02 56.505 5.02 56 3 C49.0137773 1.87309923 42.14019073 1.81391531 35.08691406 1.81469727 C32.9014898 1.81252631 30.71658426 1.79437424 28.53125 1.77539062 C19.83925758 1.74177518 11.56951037 2.35916839 3 4 C2.01 7.465 2.01 7.465 1 11 C0.67 11 0.34 11 0 11 C0 7.37 0 3.74 0 0 Z " fill="#060603" transform="translate(726,504)"/>
<path d="M0 0 C0.33 0 0.66 0 1 0 C1.04898438 0.73605469 1.09796875 1.47210938 1.1484375 2.23046875 C1.22320313 3.20628906 1.29796875 4.18210937 1.375 5.1875 C1.44460938 6.15042969 1.51421875 7.11335938 1.5859375 8.10546875 C2.00215853 11.01508938 2.79874096 13.32890774 4 16 C3.01 16 2.02 16 1 16 C1.07001221 17.18384277 1.14002441 18.36768555 1.2121582 19.58740234 C1.99320877 33.69928914 2.18624335 47.78612628 2.18530273 61.91796875 C2.18753402 65.68239954 2.20589924 69.44655653 2.22460938 73.2109375 C2.22753628 75.61197818 2.22952577 78.01302022 2.23046875 80.4140625 C2.23765427 81.53575836 2.24483978 82.65745422 2.25224304 83.81314087 C2.24916641 84.84627411 2.24608978 85.87940735 2.24291992 86.94384766 C2.24434494 87.85091461 2.24576996 88.75798157 2.24723816 89.6925354 C2 92 2 92 0 95 C0 63.65 0 32.3 0 0 Z " fill="#F7F4ED" transform="translate(915,374)"/>
<path d="M0 0 C2.33333333 0 4.66666667 0 7 0 C7 0.66 7 1.32 7 2 C8.32 1.67 9.64 1.34 11 1 C10.67 1.99 10.34 2.98 10 4 C9.34 4 8.68 4 8 4 C8 4.66 8 5.32 8 6 C6.68 6.33 5.36 6.66 4 7 C4.33 7.66 4.66 8.32 5 9 C6.32 8.67 7.64 8.34 9 8 C9.68707555 10.49064888 10 12.37886292 10 15 C9.01 15 8.02 15 7 15 C6.67 13.68 6.34 12.36 6 11 C5.01 11.66 4.02 12.32 3 13 C1 12 1 12 0.375 10.4375 C-0.16368951 6.93601819 -0.05903219 3.54193167 0 0 Z " fill="#EBE7DD" transform="translate(644,321)"/>
<path d="M0 0 C-0.33 0.66 -0.66 1.32 -1 2 C-1.99 2 -2.98 2 -4 2 C-4.08121094 2.62390625 -4.16242187 3.2478125 -4.24609375 3.890625 C-5 6 -5 6 -6.84765625 7.046875 C-7.57855469 7.27890625 -8.30945313 7.5109375 -9.0625 7.75 C-10.16271484 8.11351562 -10.16271484 8.11351562 -11.28515625 8.484375 C-12.13400391 8.73960937 -12.13400391 8.73960937 -13 9 C-12.67 10.65 -12.34 12.3 -12 14 C-12.99 14 -13.98 14 -15 14 C-15 13.34 -15 12.68 -15 12 C-15.99 12.33 -16.98 12.66 -18 13 C-17.67 11.35 -17.34 9.7 -17 8 C-16.01 8 -15.02 8 -14 8 C-13.8453125 7.13375 -13.8453125 7.13375 -13.6875 6.25 C-12.86609025 3.56174991 -11.95540875 2.02524478 -10 0 C-6.37992853 -1.2384455 -3.66836804 -0.94329464 0 0 Z " fill="#E9E6DD" transform="translate(859,485)"/>
<path d="M0 0 C0.6875 1.8125 0.6875 1.8125 1 4 C-0.25 5.75 -0.25 5.75 -2 7 C-2.99 7 -3.98 7 -5 7 C-5 7.99 -5 8.98 -5 10 C-8.49181381 11.49649163 -10.47357021 12.1012365 -14.25 11.375 C-17.22397597 9.88801201 -17.96824918 9.09525247 -19 6 C-18.34 5.67 -17.68 5.34 -17 5 C-14.97481509 5.9479589 -12.97522846 6.95191959 -11 8 C-10.01 8.33 -9.02 8.66 -8 9 C-7.79375 8.2575 -7.5875 7.515 -7.375 6.75 C-5.60384411 3.20768823 -3.36572049 1.97553159 0 0 Z " fill="#E5E1D6" transform="translate(1374,574)"/>
<path d="M0 0 C0.33 0.99 0.66 1.98 1 3 C0.01 3.33 -0.98 3.66 -2 4 C-2.33 5.65 -2.66 7.3 -3 9 C-6.69541586 9.95024979 -9.30458414 9.95024979 -13 9 C-12.67 7.68 -12.34 6.36 -12 5 C-11.34 5 -10.68 5 -10 5 C-10 4.01 -10 3.02 -10 2 C-9.401875 1.855625 -8.80375 1.71125 -8.1875 1.5625 C-2.11111111 0 -2.11111111 0 0 0 Z " fill="#E6E1D7" transform="translate(272,217)"/>
<path d="M0 0 C0.33 0 0.66 0 1 0 C2.15346143 7.66895978 1.93118286 15.00414667 1.1875 22.6875 C1.10516113 23.58500977 1.02282227 24.48251953 0.93798828 25.40722656 C0.84888184 26.24608398 0.75977539 27.08494141 0.66796875 27.94921875 C0.54844849 29.08363403 0.54844849 29.08363403 0.42651367 30.2409668 C0.2153894 31.11168823 0.2153894 31.11168823 0 32 C-0.99 32.495 -0.99 32.495 -2 33 C-2.14841673 25.56473399 -1.69670763 18.27516483 -1 10.875 C-0.90460937 9.823125 -0.80921875 8.77125 -0.7109375 7.6875 C-0.47794718 5.12460652 -0.24090324 2.56215969 0 0 Z " fill="#363630" transform="translate(725,509)"/>
<path d="M0 0 C0.99 0 1.98 0 3 0 C3 0.66 3 1.32 3 2 C3.66 2 4.32 2 5 2 C5 2.99 5 3.98 5 5 C4.34 5.66 3.68 6.32 3 7 C4.32 7 5.64 7 7 7 C7 7.99 7 8.98 7 10 C4.125 10.125 4.125 10.125 1 10 C0.34 9.34 -0.32 8.68 -1 8 C-1 6.68 -1 5.36 -1 4 C-1.33 4.99 -1.66 5.98 -2 7 C-2.99 6.67 -3.98 6.34 -5 6 C-5 4.35 -5 2.7 -5 1 C-4.01 1.33 -3.02 1.66 -2 2 C-1.34 1.34 -0.68 0.68 0 0 Z " fill="#E5E1D7" transform="translate(540,370)"/>
<path d="M0 0 C1.32 0 2.64 0 4 0 C2.49901406 3.11743233 0.97568178 6.15501823 -1 9 C-1.99 9 -2.98 9 -4 9 C-4 10.65 -4 12.3 -4 14 C-4.99 14.495 -4.99 14.495 -6 15 C-6.33 11.7 -6.66 8.4 -7 5 C-6.01 5 -5.02 5 -4 5 C-3.360625 4.175 -2.72125 3.35 -2.0625 2.5 C-1.381875 1.675 -0.70125 0.85 0 0 Z " fill="#F4F0EA" transform="translate(500,200)"/>
<path d="M0 0 C0.99 0.33 1.98 0.66 3 1 C3 1.66 3 2.32 3 3 C3.99 3.33 4.98 3.66 6 4 C6.6875 6.0625 6.6875 6.0625 7 8 C5.0625 7.625 5.0625 7.625 3 7 C2.67 6.34 2.34 5.68 2 5 C1.4225 5.309375 0.845 5.61875 0.25 5.9375 C-2 7 -2 7 -4.1875 7.4375 C-5.0846875 7.7159375 -5.0846875 7.7159375 -6 8 C-6.33 8.99 -6.66 9.98 -7 11 C-7.33 9.35 -7.66 7.7 -8 6 C-6.35 5.67 -4.7 5.34 -3 5 C-2.67 4.01 -2.34 3.02 -2 2 C-1.34 2 -0.68 2 0 2 C0 1.34 0 0.68 0 0 Z M4 8 C4 11 4 11 4 11 Z " fill="#E8E5DA" transform="translate(858,553)"/>
<path d="M0 0 C2.10644892 3.15967337 2.23347221 3.65662309 2.01171875 7.203125 C1.96466797 8.01910156 1.91761719 8.83507812 1.86914062 9.67578125 C1.80919922 10.52527344 1.74925781 11.37476563 1.6875 12.25 C1.63916016 13.08402344 1.59082031 13.91804687 1.54101562 14.77734375 C1.24482592 19.55387134 0.92611882 24.3010347 0 29 C-0.66 29.33 -1.32 29.66 -2 30 C-2.1346906 23.05033907 -1.75715004 16.28143617 -1 9.375 C-0.90460937 8.46621094 -0.80921875 7.55742188 -0.7109375 6.62109375 C-0.47856232 4.41352957 -0.24153511 2.20657739 0 0 Z " fill="#292923" transform="translate(721,558)"/>
<path d="M0 0 C0.66 0 1.32 0 2 0 C5 6.625 5 6.625 5 10 C2.03 10 -0.94 10 -4 10 C-2.68 6.7 -1.36 3.4 0 0 Z " fill="#F8D982" transform="translate(1554,576)"/>
<path d="M0 0 C2.97 0 5.94 0 9 0 C9 2.31 9 4.62 9 7 C6.36 7 3.72 7 1 7 C0.67 4.69 0.34 2.38 0 0 Z " fill="#EFB712" transform="translate(1488,576)"/>
<path d="M0 0 C0.33 0 0.66 0 1 0 C1 7.92 1 15.84 1 24 C0.67 24 0.34 24 0 24 C-0.10957031 23.30132812 -0.21914063 22.60265625 -0.33203125 21.8828125 C-0.49058594 20.97273438 -0.64914062 20.06265625 -0.8125 19.125 C-1.03873047 17.76761719 -1.03873047 17.76761719 -1.26953125 16.3828125 C-1.83051301 13.65587522 -1.83051301 13.65587522 -5 12 C-4 9 -4 9 -3 8 C-2.67 7.01 -2.34 6.02 -2 5 C-1.34 5 -0.68 5 0 5 C0 3.35 0 1.7 0 0 Z " fill="#F3F0E9" transform="translate(448,223)"/>
<path d="M0 0 C0.86625 0.5259375 0.86625 0.5259375 1.75 1.0625 C4.43358372 2.18065988 5.30609104 1.92603121 8 1 C10 0.5 10 0.5 12 0 C12 1.32 12 2.64 12 4 C11.34 4 10.68 4 10 4 C9.67 4.66 9.34 5.32 9 6 C7.88625 5.979375 6.7725 5.95875 5.625 5.9375 C2.16784079 5.73619282 2.16784079 5.73619282 0 7 C-0.66 6.67 -1.32 6.34 -2 6 C-2 5.01 -2 4.02 -2 3 C-1.34 3 -0.68 3 0 3 C0 2.01 0 1.02 0 0 Z " fill="#E6E3D8" transform="translate(973,561)"/>
<path d="M0 0 C0.33 0 0.66 0 1 0 C1.19532961 1.7699868 1.38098882 3.54104279 1.5625 5.3125 C1.66691406 6.29863281 1.77132813 7.28476562 1.87890625 8.30078125 C2 11 2 11 1 14 C-1.31 14 -3.62 14 -6 14 C-5.67 13.34 -5.34 12.68 -5 12 C-2.9375 11.375 -2.9375 11.375 -1 11 C-3.31 10.67 -5.62 10.34 -8 10 C-7.67 9.34 -7.34 8.68 -7 8 C-4.69 8 -2.38 8 0 8 C-0.66 6.02 -1.32 4.04 -2 2 C-1.34 1.34 -0.68 0.68 0 0 Z " fill="#F2B70F" transform="translate(1516,542)"/>
<path d="M0 0 C1.98 0 3.96 0 6 0 C6.33 1.32 6.66 2.64 7 4 C9.31 4.33 11.62 4.66 14 5 C14.33 5.99 14.66 6.98 15 8 C12.69 8 10.38 8 8 8 C8 7.34 8 6.68 8 6 C7.34 6 6.68 6 6 6 C6 5.34 6 4.68 6 4 C3.69 3.67 1.38 3.34 -1 3 C-0.67 2.01 -0.34 1.02 0 0 Z " fill="#E4E1D6" transform="translate(941,363)"/>
<path d="M0 0 C0.33 0 0.66 0 1 0 C1.33 3.63 1.66 7.26 2 11 C3.32 9.68 4.64 8.36 6 7 C7.0625 8.875 7.0625 8.875 8 11 C7.67 11.66 7.34 12.32 7 13 C6.01 13 5.02 13 4 13 C4 13.66 4 14.32 4 15 C2.68 15 1.36 15 0 15 C0 10.05 0 5.1 0 0 Z " fill="#F4F0E8" transform="translate(486,571)"/>
<path d="M0 0 C0.33 0 0.66 0 1 0 C1 13.53 1 27.06 1 41 C0.67 41 0.34 41 0 41 C-0.02505615 39.9805127 -0.0501123 38.96102539 -0.07592773 37.91064453 C-0.16997004 34.13479646 -0.27019837 30.35913373 -0.37231445 26.58349609 C-0.41567538 24.94812347 -0.45734961 23.31270523 -0.49731445 21.67724609 C-0.55498912 19.32896159 -0.61869129 16.98090696 -0.68359375 14.6328125 C-0.70030624 13.89942657 -0.71701874 13.16604065 -0.73423767 12.41043091 C-0.78637962 8.57797692 -0.78637962 8.57797692 -2 5 C-1.0625 2.375 -1.0625 2.375 0 0 Z " fill="#F5F1E8" transform="translate(448,495)"/>
<path d="M0 0 C7.92 0 15.84 0 24 0 C23.67 0.66 23.34 1.32 23 2 C21.12054687 1.98259766 21.12054687 1.98259766 19.203125 1.96484375 C17.55208483 1.95546284 15.90104304 1.94636296 14.25 1.9375 C13.425 1.92912109 12.6 1.92074219 11.75 1.91210938 C10.95078125 1.90888672 10.1515625 1.90566406 9.328125 1.90234375 C8.5949707 1.89710693 7.86181641 1.89187012 7.10644531 1.88647461 C4.9538151 2.0024891 3.0685865 2.40926729 1 3 C1.185625 3.515625 1.37125 4.03125 1.5625 4.5625 C2.15419517 7.85908739 1.567267 10.72245735 1 14 C0.67 14 0.34 14 0 14 C0 9.38 0 4.76 0 0 Z " fill="#11110B" transform="translate(1315,371)"/>
<path d="M0 0 C0.66 0 1.32 0 2 0 C2 7.92 2 15.84 2 24 C0.68 22.68 -0.64 21.36 -2 20 C-1.34 19.34 -0.68 18.68 0 18 C0.28082344 15.89250534 0.28082344 15.89250534 0.1875 13.5625 C0.18105469 12.78003906 0.17460937 11.99757812 0.16796875 11.19140625 C0.07555669 8.82200323 0.07555669 8.82200323 -1 6 C-1.66 5.67 -2.32 5.34 -3 5 C-3 4.34 -3 3.68 -3 3 C-2.01 3 -1.02 3 0 3 C0 2.01 0 1.02 0 0 Z " fill="#F4F1E9" transform="translate(447,189)"/>
<path d="M0 0 C0.33 0 0.66 0 1 0 C1.05416741 2.72943537 1.09375225 5.45778564 1.125 8.1875 C1.15013672 9.34088867 1.15013672 9.34088867 1.17578125 10.51757812 C1.21266851 14.8149434 0.9958504 18.07901831 -1 22 C-1.33 22 -1.66 22 -2 22 C-1.86105852 18.89548451 -1.712657 15.79149165 -1.5625 12.6875 C-1.50352539 11.36588867 -1.50352539 11.36588867 -1.44335938 10.01757812 C-1.40146484 9.17001953 -1.35957031 8.32246094 -1.31640625 7.44921875 C-1.27974854 6.66893311 -1.24309082 5.88864746 -1.20532227 5.0847168 C-1 3 -1 3 0 0 Z " fill="#33332D" transform="translate(737,366)"/>
<path d="M0 0 C0.598125 0.185625 1.19625 0.37125 1.8125 0.5625 C4.16408762 1.22093687 4.16408762 1.22093687 7 0 C6.67 0.99 6.34 1.98 6 3 C2.9375 4.1875 2.9375 4.1875 0 5 C0.33 6.65 0.66 8.3 1 10 C0.01 10 -0.98 10 -2 10 C-2 9.34 -2 8.68 -2 8 C-2.99 8.33 -3.98 8.66 -5 9 C-4.67 7.35 -4.34 5.7 -4 4 C-3.01 4 -2.02 4 -1 4 C-0.67 2.68 -0.34 1.36 0 0 Z " fill="#E4E1D6" transform="translate(846,489)"/>
<path d="M0 0 C0.66 0 1.32 0 2 0 C1.35455571 3.48539917 -0.10134397 6.02819057 -2 9 C-2.99 8.67 -3.98 8.34 -5 8 C-4.34 6.68 -3.68 5.36 -3 4 C-2.34 4 -1.68 4 -1 4 C-0.67 2.68 -0.34 1.36 0 0 Z M-5 9 C-5.33 9.99 -5.66 10.98 -6 12 C-8.0625 12.6875 -8.0625 12.6875 -10 13 C-10.66 12.01 -11.32 11.02 -12 10 C-8.375 7.875 -8.375 7.875 -5 9 Z " fill="#E7E5DA" transform="translate(843,556)"/>
<path d="M0 0 C0.66 0 1.32 0 2 0 C3.39195915 4.17587745 1.82323219 6.13474776 0 10 C0.66 10.33 1.32 10.66 2 11 C2 11.99 2 12.98 2 14 C1.01 14 0.02 14 -1 14 C-1 13.34 -1 12.68 -1 12 C-1.99 11.67 -2.98 11.34 -4 11 C-3.67 9.35 -3.34 7.7 -3 6 C-2.34 6 -1.68 6 -1 6 C-0.67 4.02 -0.34 2.04 0 0 Z " fill="#E8E5DA" transform="translate(977,415)"/>
<path d="M0 0 C0.33 0 0.66 0 1 0 C1 3.3 1 6.6 1 10 C2.32 10.33 3.64 10.66 5 11 C5 11.66 5 12.32 5 13 C4.01 13.66 3.02 14.32 2 15 C1.27034634 17.56282742 1.27034634 17.56282742 1 20 C0.67 20 0.34 20 0 20 C-0.19594676 16.85463232 -0.3803401 13.70869386 -0.5625 10.5625 C-0.61857422 9.66466797 -0.67464844 8.76683594 -0.73242188 7.84179688 C-0.78076172 6.98779297 -0.82910156 6.13378906 -0.87890625 5.25390625 C-0.9260376 4.46314697 -0.97316895 3.6723877 -1.02172852 2.85766602 C-1 1 -1 1 0 0 Z " fill="#E4E2D9" transform="translate(766,293)"/>
<path d="M0 0 C0.33 0 0.66 0 1 0 C1 4.29 1 8.58 1 13 C0.01 13.495 0.01 13.495 -1 14 C-1 13.01 -1 12.02 -1 11 C-2.65 11.33 -4.3 11.66 -6 12 C-6 11.01 -6 10.02 -6 9 C-5.38125 8.814375 -4.7625 8.62875 -4.125 8.4375 C-0.94397134 6.28562767 -0.80548053 3.62466237 0 0 Z " fill="#F2F0EA" transform="translate(1313,188)"/>
<path d="M0 0 C0.99 0.99 1.98 1.98 3 3 C2.34 4.65 1.68 6.3 1 8 C-1.66666667 7.33333333 -4.33333333 6.66666667 -7 6 C-7 5.34 -7 4.68 -7 4 C-6.01 4 -5.02 4 -4 4 C-1.81222534 2.0624994 -1.81222534 2.0624994 0 0 Z " fill="#E6E2D7" transform="translate(1312,575)"/>
<path d="M0 0 C0.66 0.33 1.32 0.66 2 1 C1.67 1.66 1.34 2.32 1 3 C1.99 3.33 2.98 3.66 4 4 C2.625 6 2.625 6 1 8 C0.34 8 -0.32 8 -1 8 C-1 8.99 -1 9.98 -1 11 C-1.66 11 -2.32 11 -3 11 C-2.49396008 8.83125748 -2.00016187 7.00032373 -1 5 C-2.32 4.67 -3.64 4.34 -5 4 C-5 3.01 -5 2.02 -5 1 C-4.01 1.33 -3.02 1.66 -2 2 C-1.34 1.34 -0.68 0.68 0 0 Z " fill="#E5E3D9" transform="translate(1108,488)"/>
<path d="M0 0 C2.5 1.375 2.5 1.375 5 3 C5 3.66 5 4.32 5 5 C4.34 5 3.68 5 3 5 C3 6.32 3 7.64 3 9 C0.36 9 -2.28 9 -5 9 C-5 8.34 -5 7.68 -5 7 C-3.68 7 -2.36 7 -1 7 C-1 6.34 -1 5.68 -1 5 C-0.34 5 0.32 5 1 5 C1 4.34 1 3.68 1 3 C0.34 3 -0.32 3 -1 3 C-0.67 2.01 -0.34 1.02 0 0 Z " fill="#E7E3D9" transform="translate(1234,549)"/>
<path d="M0 0 C1.65 0 3.3 0 5 0 C7.09230769 4.43076923 7.09230769 4.43076923 6.625 7.3125 C6.41875 7.869375 6.2125 8.42625 6 9 C4.68 9 3.36 9 2 9 C2 6.66666667 2 4.33333333 2 2 C1.34 2 0.68 2 0 2 C0 1.34 0 0.68 0 0 Z " fill="#E6E2D8" transform="translate(985,416)"/>
<path d="M0 0 C0.66 0 1.32 0 2 0 C2 0.66 2 1.32 2 2 C2.66 2 3.32 2 4 2 C4.66 3.65 5.32 5.3 6 7 C5.01 7.66 4.02 8.32 3 9 C-0.0109362 6.9927092 -0.63016497 6.16115776 -2 3 C-1.34 2.01 -0.68 1.02 0 0 Z " fill="#E5E1D6" transform="translate(194,555)"/>
<path d="M0 0 C5.28 0.33 10.56 0.66 16 1 C16 1.33 16 1.66 16 2 C11.71 2.66 7.42 3.32 3 4 C2.01 7.465 2.01 7.465 1 11 C0.67 11 0.34 11 0 11 C0 7.37 0 3.74 0 0 Z " fill="#12120E" transform="translate(726,504)"/>
<path d="M0 0 C1.99097846 2.98646769 2.94124926 5.59687262 4 9 C1.35261084 10.4606285 0.10551666 11 -3 11 C-3 10.34 -3 9.68 -3 9 C-2.34 9 -1.68 9 -1 9 C-1.20625 7.88625 -1.4125 6.7725 -1.625 5.625 C-1.74875 4.42875 -1.8725 3.2325 -2 2 C-1.34 1.34 -0.68 0.68 0 0 Z " fill="#E7E4D9" transform="translate(1251,428)"/>
<path d="M0 0 C0.33 0 0.66 0 1 0 C1 6.93 1 13.86 1 21 C-1.475 20.01 -1.475 20.01 -4 19 C-3.34 18.67 -2.68 18.34 -2 18 C-2 17.34 -2 16.68 -2 16 C-1.34 16 -0.68 16 0 16 C0 14.02 0 12.04 0 10 C-0.66 9.67 -1.32 9.34 -2 9 C-1.7834375 8.1646875 -1.7834375 8.1646875 -1.5625 7.3125 C-0.97230872 4.88615805 -0.476571 2.45093655 0 0 Z " fill="#E7E5DC" transform="translate(1014,376)"/>
<path d="M0 0 C1.98 0 3.96 0 6 0 C4.68 2.31 3.36 4.62 2 7 C1.34 7 0.68 7 0 7 C-0.66 8.32 -1.32 9.64 -2 11 C-2.66 9.68 -3.32 8.36 -4 7 C-3.34 6.401875 -2.68 5.80375 -2 5.1875 C0.3373846 3.12498166 0.3373846 3.12498166 0 0 Z " fill="#E8E4DB" transform="translate(1059,533)"/>
<path d="M0 0 C-2.86536704 4.07763771 -5.43041625 6.02677065 -10 8 C-10 4 -10 4 -8.57421875 2.48046875 C-7.95160156 2.05378906 -7.32898438 1.62710938 -6.6875 1.1875 C-5.76517578 0.52814453 -5.76517578 0.52814453 -4.82421875 -0.14453125 C-3 -1 -3 -1 0 0 Z " fill="#151511" transform="translate(266,567)"/>
<path d="M0 0 C1.2065625 0.0309375 1.2065625 0.0309375 2.4375 0.0625 C2.4375 1.3825 2.4375 2.7025 2.4375 4.0625 C3.0975 3.4025 3.7575 2.7425 4.4375 2.0625 C4.4375 3.3825 4.4375 4.7025 4.4375 6.0625 C3.7775 6.0625 3.1175 6.0625 2.4375 6.0625 C2.4375 7.0525 2.4375 8.0425 2.4375 9.0625 C1.4475 8.7325 0.4575 8.4025 -0.5625 8.0625 C-0.748125 6.886875 -0.748125 6.886875 -0.9375 5.6875 C-1.35367993 2.92192178 -1.35367993 2.92192178 -3.5625 1.0625 C-2.5625 0.0625 -2.5625 0.0625 0 0 Z " fill="#E2DED5" transform="translate(875.5625,479.9375)"/>
<path d="M0 0 C0.66 0 1.32 0 2 0 C3.0712828 6.02596573 3.09945415 11.88909517 3 18 C2.67 18 2.34 18 2 18 C2 16.02 2 14.04 2 12 C1.34 12 0.68 12 0 12 C0 8.04 0 4.08 0 0 Z " fill="#2F2E29" transform="translate(751,163)"/>
<path d="M0 0 C2 1 2 1 2 1 Z M0 2 C0 2.99 0 3.98 0 5 C-1.32 5 -2.64 5 -4 5 C-4.268125 5.61875 -4.53625 6.2375 -4.8125 6.875 C-6 9 -6 9 -9 11 C-8.38722388 8.03824877 -7.74627478 6.61941217 -6 4 C-6.33 3.34 -6.66 2.68 -7 2 C-2.25 0.875 -2.25 0.875 0 2 Z " fill="#E6E3DA" transform="translate(723,482)"/>
<path d="M0 0 C2.475 0.99 2.475 0.99 5 2 C4.34 2.66 3.68 3.32 3 4 C2.01 4 1.02 4 0 4 C0.66 4.66 1.32 5.32 2 6 C1.67 6.66 1.34 7.32 1 8 C-0.32 8 -1.64 8 -3 8 C-3 7.34 -3 6.68 -3 6 C-3.66 6 -4.32 6 -5 6 C-4.33333333 4.66666667 -3.66666667 3.33333333 -3 2 C-2.01 2 -1.02 2 0 2 C0 1.34 0 0.68 0 0 Z " fill="#E7E3D9" transform="translate(936,355)"/>
<path d="M0 0 C1.65 0 3.3 0 5 0 C4.67 0.66 4.34 1.32 4 2 C3.731875 2.680625 3.46375 3.36125 3.1875 4.0625 C2 6 2 6 -0.125 6.75 C-1.053125 6.87375 -1.053125 6.87375 -2 7 C-2.66 5.68 -3.32 4.36 -4 3 C-3.01 2.67 -2.02 2.34 -1 2 C-0.67 1.34 -0.34 0.68 0 0 Z " fill="#E8E5DB" transform="translate(1123,215)"/>
<path d="M0 0 C0.99 0.495 0.99 0.495 2 1 C2 2.65 2 4.3 2 6 C3.98 5.67 5.96 5.34 8 5 C8 6.32 8 7.64 8 9 C7.01 9 6.02 9 5 9 C4.34 9.66 3.68 10.32 3 11 C3 9.68 3 8.36 3 7 C2.01 6.67 1.02 6.34 0 6 C0 4.02 0 2.04 0 0 Z " fill="#F0B40F" transform="translate(1474,561)"/>
<path d="M0 0 C1.32 0.33 2.64 0.66 4 1 C3.67 3.97 3.34 6.94 3 10 C2.01 10 1.02 10 0 10 C0 6.7 0 3.4 0 0 Z " fill="#E7E4D9" transform="translate(883,553)"/>
<path d="M0 0 C0.66 1.65 1.32 3.3 2 5 C-4.625 5.25 -4.625 5.25 -8 3 C-2.25 0 -2.25 0 0 0 Z " fill="#E3DED3" transform="translate(157,498)"/>
<path d="M0 0 C2.33333333 0 4.66666667 0 7 0 C7.33 0.99 7.66 1.98 8 3 C3.375 6 3.375 6 0 6 C0 4.02 0 2.04 0 0 Z " fill="#E3DED4" transform="translate(644,321)"/>
<path d="M0 0 C0.66 0.33 1.32 0.66 2 1 C1.57847656 1.47050781 1.15695312 1.94101562 0.72265625 2.42578125 C0.17480469 3.04839844 -0.37304688 3.67101562 -0.9375 4.3125 C-1.48277344 4.92738281 -2.02804687 5.54226563 -2.58984375 6.17578125 C-4.20081559 8.05241958 -4.20081559 8.05241958 -5 11 C-5.66 11 -6.32 11 -7 11 C-7.4375 8.875 -7.4375 8.875 -7 6 C-4.87310854 3.723853 -2.4976567 1.8541278 0 0 Z " fill="#E7E4DB" transform="translate(1124,282)"/>
<path d="M0 0 C-0.61875 0.28875 -1.2375 0.5775 -1.875 0.875 C-4.13325765 1.93720042 -4.13325765 1.93720042 -6 4 C-5.67 4.99 -5.34 5.98 -5 7 C-6.65 6.67 -8.3 6.34 -10 6 C-6.47379032 -1.53326613 -6.47379032 -1.53326613 0 0 Z " fill="#E7E4D9" transform="translate(1092,273)"/>
<path d="M0 0 C1.98 0.495 1.98 0.495 4 1 C4 1.66 4 2.32 4 3 C5.32 3.33 6.64 3.66 8 4 C7.34 4.66 6.68 5.32 6 6 C5.34 5.67 4.68 5.34 4 5 C3.67 5.66 3.34 6.32 3 7 C1.68 5.68 0.36 4.36 -1 3 C-0.67 2.01 -0.34 1.02 0 0 Z " fill="#F3F0E9" transform="translate(1129,358)"/>
<path d="M0 0 C4.75207471 -0.43200679 7.78210698 1.01510917 12 3 C12 3.99 12 4.98 12 6 C9.0625 5.625 9.0625 5.625 6 5 C5.67 4.34 5.34 3.68 5 3 C3.02 3 1.04 3 -1 3 C-0.67 2.01 -0.34 1.02 0 0 Z " fill="#E4E0D6" transform="translate(711,216)"/>
<path d="M0 0 C0.33 0.99 0.66 1.98 1 3 C1.99 3.33 2.98 3.66 4 4 C3.71125 4.515625 3.4225 5.03125 3.125 5.5625 C1.71219973 8.62356725 0.8751483 11.74944918 0 15 C-0.33 15 -0.66 15 -1 15 C-1.10251672 9.87416389 -1.03590199 5.05002222 0 0 Z " fill="#F3F0E6" transform="translate(628,497)"/>
<path d="M0 0 C0.33 0.99 0.66 1.98 1 3 C3.31 3 5.62 3 8 3 C7.67 3.99 7.34 4.98 7 6 C4.25 6.25 4.25 6.25 1 6 C-1.375 4 -1.375 4 -3 2 C-2.01 1.34 -1.02 0.68 0 0 Z " fill="#F1EEE6" transform="translate(115,498)"/>
<path d="M0 0 C0.33 0 0.66 0 1 0 C1 6.27 1 12.54 1 19 C-0.65 17.35 -2.3 15.7 -4 14 C-2.68 13.34 -1.36 12.68 0 12 C0 8.04 0 4.08 0 0 Z " fill="#F2EFE9" transform="translate(586,401)"/>
<path d="M0 0 C0.99 0.33 1.98 0.66 3 1 C2.3503125 1.5878125 2.3503125 1.5878125 1.6875 2.1875 C-0.26366224 4.28319278 -1.59010162 6.51589333 -3 9 C-3.66 8.67 -4.32 8.34 -5 8 C-5 6.68 -5 5.36 -5 4 C-4.34 4 -3.68 4 -3 4 C-2.67 3.01 -2.34 2.02 -2 1 C-1.34 0.67 -0.68 0.34 0 0 Z " fill="#F2EFE7" transform="translate(522,172)"/>
<path d="M0 0 C3.65316671 1.24976756 4.78065836 1.67098753 7 5 C6.195625 5.12375 5.39125 5.2475 4.5625 5.375 C3.2940625 5.684375 3.2940625 5.684375 2 6 C1.67 6.66 1.34 7.32 1 8 C0.34 8 -0.32 8 -1 8 C-1.33 7.01 -1.66 6.02 -2 5 C-0.68 4.67 0.64 4.34 2 4 C2 3.34 2 2.68 2 2 C1.34 2 0.68 2 0 2 C0 1.34 0 0.68 0 0 Z " fill="#E8E5DB" transform="translate(937,475)"/>
<path d="M0 0 C2.9719385 1.12451727 5.33440687 2.22293791 8 4 C8.66 4.33 9.32 4.66 10 5 C9.67 6.32 9.34 7.64 9 9 C7 7.625 7 7.625 5 6 C5 5.34 5 4.68 5 4 C3.35 4 1.7 4 0 4 C0 2.68 0 1.36 0 0 Z " fill="#E4E1D5" transform="translate(554,469)"/>
<path d="M0 0 C0.33 0 0.66 0 1 0 C1 2.97 1 5.94 1 9 C-0.65 8.67 -2.3 8.34 -4 8 C-4 5 -4 5 -3 2 C-2.34 2 -1.68 2 -1 2 C-0.67 1.34 -0.34 0.68 0 0 Z " fill="#D7D4CD" transform="translate(872,409)"/>
<path d="M0 0 C1.65 0.33 3.3 0.66 5 1 C5 1.66 5 2.32 5 3 C4.34 3 3.68 3 3 3 C3.33 3.99 3.66 4.98 4 6 C1 6 1 6 -2 4 C-1.34 2.68 -0.68 1.36 0 0 Z " fill="#E5E2D8" transform="translate(952,382)"/>
<path d="M0 0 C0 0.66 0 1.32 0 2 C-3.3 2 -6.6 2 -10 2 C-10.33 2.99 -10.66 3.98 -11 5 C-11.66 3.68 -12.32 2.36 -13 1 C-8.20862412 -0.6290678 -4.94367454 -1.20577428 0 0 Z " fill="#E8E4DB" transform="translate(1105,242)"/>
<path d="M0 0 C0.66 0 1.32 0 2 0 C3 3 3 3 2 6 C1.34 6 0.68 6 0 6 C-0.33 7.65 -0.66 9.3 -1 11 C-1.33 11 -1.66 11 -2 11 C-2.25 3.375 -2.25 3.375 0 0 Z " fill="#E7E4DC" transform="translate(762,234)"/>
<path d="M0 0 C0.99 0.33 1.98 0.66 3 1 C1.79618552 3.49361571 0.54571278 5.68143083 -1 8 C-2.32 7.34 -3.64 6.68 -5 6 C-4.54625 5.566875 -4.0925 5.13375 -3.625 4.6875 C-1.79975666 2.89201658 -1.79975666 2.89201658 0 0 Z " fill="#E7E4DA" transform="translate(440,578)"/>
<path d="M0 0 C0.33 0.99 0.66 1.98 1 3 C0.01 2.67 -0.98 2.34 -2 2 C-2 1.34 -2 0.68 -2 0 C-2.66 0 -3.32 0 -4 0 C-4.33 1.65 -4.66 3.3 -5 5 C-6.9375 4.625 -6.9375 4.625 -9 4 C-9.33 3.34 -9.66 2.68 -10 2 C-6.27511755 -0.66063032 -4.42132508 -1.38955931 0 0 Z " fill="#E8E5DA" transform="translate(1258,580)"/>
<path d="M0 0 C1.65 0 3.3 0 5 0 C4.01 1.485 4.01 1.485 3 3 C2.67 3 2.34 3 2 3 C1.67 7.95 1.34 12.9 1 18 C0.67 18 0.34 18 0 18 C0 12.06 0 6.12 0 0 Z " fill="#181813" transform="translate(451,168)"/>
<path d="M0 0 C0.33 0 0.66 0 1 0 C1.28780586 3.05074215 1.45787911 5.96183742 1 9 C-1.5 11.0625 -1.5 11.0625 -4 12 C-3.67 10.68 -3.34 9.36 -3 8 C-3.66 7.67 -4.32 7.34 -5 7 C-3.35 6.67 -1.7 6.34 0 6 C0 4.02 0 2.04 0 0 Z " fill="#D3D0C7" transform="translate(885,540)"/>
<path d="M0 0 C0.99 0 1.98 0 3 0 C3.33 0.99 3.66 1.98 4 3 C3.67 3.66 3.34 4.32 3 5 C0.36 5 -2.28 5 -5 5 C-5 4.01 -5 3.02 -5 2 C-3.35 2 -1.7 2 0 2 C0 1.34 0 0.68 0 0 Z " fill="#F1B60F" transform="translate(1478,535)"/>
<path d="M0 0 C-1.98 0.99 -1.98 0.99 -4 2 C-3.67 3.32 -3.34 4.64 -3 6 C-3.99 6.33 -4.98 6.66 -6 7 C-6.66 6.34 -7.32 5.68 -8 5 C-7.625 2.375 -7.625 2.375 -7 0 C-3.98968256 -0.93423645 -3.13349732 -1.04449911 0 0 Z " fill="#E7E4DA" transform="translate(379,251)"/>
<path d="M0 0 C1.67542976 0.28604898 3.34385343 0.61781233 5 1 C4.67 2.32 4.34 3.64 4 5 C1.69 5 -0.62 5 -3 5 C-1.125 1.125 -1.125 1.125 0 0 Z " fill="#E6E2D7" transform="translate(276,248)"/>
<path d="M0 0 C2.97 0.495 2.97 0.495 6 1 C6 1.66 6 2.32 6 3 C3.03 3.66 0.06 4.32 -3 5 C-3 4.34 -3 3.68 -3 3 C-2.34 3 -1.68 3 -1 3 C-0.67 2.01 -0.34 1.02 0 0 Z " fill="#E3DFD4" transform="translate(207,230)"/>
<path d="M0 0 C0 1.98 0 3.96 0 6 C-0.99 6 -1.98 6 -3 6 C-3 5.34 -3 4.68 -3 4 C-3.99 4.33 -4.98 4.66 -6 5 C-6 4.01 -6 3.02 -6 2 C-3 0 -3 0 0 0 Z " fill="#E3DFD4" transform="translate(543,205)"/>
<path d="M0 0 C0.99 0.33 1.98 0.66 3 1 C-0.96 4.465 -0.96 4.465 -5 8 C-5.66 7.34 -6.32 6.68 -7 6 C-5.90716423 4.96704564 -4.80029421 3.94892165 -3.6875 2.9375 C-3.07261719 2.36902344 -2.45773437 1.80054688 -1.82421875 1.21484375 C-0.92123047 0.61349609 -0.92123047 0.61349609 0 0 Z " fill="#151510" transform="translate(1121,562)"/>
<path d="M0 0 C0.33 0.66 0.66 1.32 1 2 C0.67 2.66 0.34 3.32 0 4 C1.65 3.67 3.3 3.34 5 3 C4.67 4.32 4.34 5.64 4 7 C2.35 6.67 0.7 6.34 -1 6 C-1 5.34 -1 4.68 -1 4 C-1.66 4 -2.32 4 -3 4 C-3 3.34 -3 2.68 -3 2 C-2.01 1.34 -1.02 0.68 0 0 Z " fill="#E8E4DA" transform="translate(838,519)"/>
<path d="M0 0 C2.64 0 5.28 0 8 0 C8 0.66 8 1.32 8 2 C5.03 2.66 2.06 3.32 -1 4 C-0.67 2.68 -0.34 1.36 0 0 Z " fill="#E7E4D9" transform="translate(1356,490)"/>
<path d="M0 0 C-3.32307692 3.93846154 -3.32307692 3.93846154 -6.75 4.25 C-7.4925 4.1675 -8.235 4.085 -9 4 C-9.33 3.01 -9.66 2.02 -10 1 C-3.71428571 -1.42857143 -3.71428571 -1.42857143 0 0 Z " fill="#E7E3D9" transform="translate(501,483)"/>
<path d="M0 0 C0.66 0.99 1.32 1.98 2 3 C-2.75 6 -2.75 6 -5 6 C-5.33 4.35 -5.66 2.7 -6 1 C-4.02 0.67 -2.04 0.34 0 0 Z " fill="#E7E3D8" transform="translate(1216,461)"/>
<path d="M0 0 C1.32 0.66 2.64 1.32 4 2 C3.67 2.66 3.34 3.32 3 4 C4.32 4.33 5.64 4.66 7 5 C6.67 5.99 6.34 6.98 6 8 C0.125 4.375 0.125 4.375 -1 1 C-0.67 0.67 -0.34 0.34 0 0 Z " fill="#E5E1D7" transform="translate(1088,439)"/>
<path d="M0 0 C2.8203125 -0.29296875 2.8203125 -0.29296875 6.125 -0.1875 C7.76855469 -0.14689453 7.76855469 -0.14689453 9.4453125 -0.10546875 C10.28835938 -0.07066406 11.13140625 -0.03585938 12 0 C10.6875 1.5 10.6875 1.5 9 3 C8.01 3 7.02 3 6 3 C6 2.34 6 1.68 6 1 C3.36 1.66 0.72 2.32 -2 3 C-1.34 2.01 -0.68 1.02 0 0 Z " fill="#131211" transform="translate(1391,176)"/>
<path d="M0 0 C-0.33 0.66 -0.66 1.32 -1 2 C-3.50390625 2.6328125 -3.50390625 2.6328125 -6.5625 3.125 C-8.08037109 3.37636719 -8.08037109 3.37636719 -9.62890625 3.6328125 C-10.80259766 3.81457031 -10.80259766 3.81457031 -12 4 C-8.41084094 -0.78554541 -5.58334594 -0.37222306 0 0 Z " fill="#E6E3D7" transform="translate(1340,538)"/>
<path d="M0 0 C0.33 0.66 0.66 1.32 1 2 C2.485 2.4640625 2.485 2.4640625 4 2.9375 C4.99 3.288125 5.98 3.63875 7 4 C7.33 4.99 7.66 5.98 8 7 C5.69 6.67 3.38 6.34 1 6 C0.67 4.02 0.34 2.04 0 0 Z " fill="#F2B70E" transform="translate(1472,515)"/>
<path d="M0 0 C0.33 0.66 0.66 1.32 1 2 C1.66 2 2.32 2 3 2 C2.34 3.98 1.68 5.96 1 8 C-1 6.625 -1 6.625 -3 5 C-3 4.34 -3 3.68 -3 3 C-2.34 3 -1.68 3 -1 3 C-0.67 2.01 -0.34 1.02 0 0 Z " fill="#E8E5DB" transform="translate(954,484)"/>
<path d="M0 0 C0.99 0.33 1.98 0.66 3 1 C3 1.66 3 2.32 3 3 C2.34 3 1.68 3 1 3 C1 3.66 1 4.32 1 5 C-1.9375 4.625 -1.9375 4.625 -5 4 C-5.33 3.34 -5.66 2.68 -6 2 C-4.02 2 -2.04 2 0 2 C0 1.34 0 0.68 0 0 Z " fill="#E5E2D8" transform="translate(800,450)"/>
<path d="M0 0 C0.33 0 0.66 0 1 0 C1.33 1.98 1.66 3.96 2 6 C2.99 6 3.98 6 5 6 C5 7.65 5 9.3 5 11 C4.34 10.67 3.68 10.34 3 10 C3 9.34 3 8.68 3 8 C2.01 8 1.02 8 0 8 C0 5.36 0 2.72 0 0 Z M2 11 C2.66 11 3.32 11 4 11 C4 11.66 4 12.32 4 13 C3.34 13 2.68 13 2 13 C2 12.34 2 11.68 2 11 Z " fill="#D1CEC4" transform="translate(634,421)"/>
<path d="M0 0 C-0.99 1.485 -0.99 1.485 -2 3 C-4.16874252 2.49396008 -5.99967627 2.00016187 -8 1 C-8 0.34 -8 -0.32 -8 -1 C-4.37673261 -2.2077558 -3.35853631 -1.54311128 0 0 Z " fill="#E5E1D8" transform="translate(441,374)"/>
<path d="M0 0 C0.78375 0.04125 1.5675 0.0825 2.375 0.125 C2.375 1.445 2.375 2.765 2.375 4.125 C-1.625 4.125 -1.625 4.125 -4.625 2.125 C-2.625 0.125 -2.625 0.125 0 0 Z " fill="#E4E2D7" transform="translate(717.625,277.875)"/>
<path d="M0 0 C0 0.99 0 1.98 0 3 C-2.97 3 -5.94 3 -9 3 C-8 1 -8 1 -5.625 -0.1875 C-3 -1 -3 -1 0 0 Z " fill="#F3DDA3" transform="translate(1559,583)"/>
<path d="M0 0 C2.88437779 1.29299694 4.87219421 2.65941363 7 5 C5.68 5.33 4.36 5.66 3 6 C1.68 4.35 0.36 2.7 -1 1 C-0.67 0.67 -0.34 0.34 0 0 Z " fill="#151511" transform="translate(96,563)"/>
<path d="M0 0 C0.99 0.33 1.98 0.66 3 1 C3.6875 3.0625 3.6875 3.0625 4 5 C1.69 5 -0.62 5 -3 5 C-1.125 1.125 -1.125 1.125 0 0 Z " fill="#E5E2D6" transform="translate(215,525)"/>
<path d="M0 0 C1.9375 0.8125 1.9375 0.8125 4 2 C4.33 2.99 4.66 3.98 5 5 C2.3333581 6.33332095 0.83319697 5.67102033 -2 5 C-1.67 4.34 -1.34 3.68 -1 3 C-0.67 2.01 -0.34 1.02 0 0 Z " fill="#E7E3D9" transform="translate(147,358)"/>
<path d="M0 0 C1.32 0.66 2.64 1.32 4 2 C3.67 2.66 3.34 3.32 3 4 C2.34 4 1.68 4 1 4 C1 4.66 1 5.32 1 6 C-0.32 5.34 -1.64 4.68 -3 4 C-2.01 2.68 -1.02 1.36 0 0 Z " fill="#F3F1E8" transform="translate(717,273)"/>
<path d="M0 0 C-0.33 0.99 -0.66 1.98 -1 3 C-1.99 2.67 -2.98 2.34 -4 2 C-7.15020361 2.88319294 -7.15020361 2.88319294 -10 4 C-9 1 -9 1 -6.6875 -0.25 C-3.90126985 -1.0275526 -2.66561622 -0.98726527 0 0 Z " fill="#E6E3D9" transform="translate(820,257)"/>
<path d="M0 0 C1.21816406 0.03480469 1.21816406 0.03480469 2.4609375 0.0703125 C3.68683594 0.09738281 3.68683594 0.09738281 4.9375 0.125 C5.87722656 0.15980469 5.87722656 0.15980469 6.8359375 0.1953125 C7.1659375 1.1853125 7.4959375 2.1753125 7.8359375 3.1953125 C3.8759375 2.8653125 -0.0840625 2.5353125 -4.1640625 2.1953125 C-2.1640625 0.1953125 -2.1640625 0.1953125 0 0 Z " fill="#2C2B26" transform="translate(179.1640625,165.8046875)"/>
<path d="M0 0 C4.455 0.99 4.455 0.99 9 2 C8.67 2.99 8.34 3.98 8 5 C7.34 5 6.68 5 6 5 C6 4.34 6 3.68 6 3 C4.35 3 2.7 3 1 3 C0.67 2.01 0.34 1.02 0 0 Z " fill="#E4E0D7" transform="translate(377,158)"/>
<path d="M0 0 C1.134375 0.020625 2.26875 0.04125 3.4375 0.0625 C3.1075 1.0525 2.7775 2.0425 2.4375 3.0625 C0.7875 3.3925 -0.8625 3.7225 -2.5625 4.0625 C-2.5625 3.4025 -2.5625 2.7425 -2.5625 2.0625 C-3.2225 1.7325 -3.8825 1.4025 -4.5625 1.0625 C-3.5625 0.0625 -3.5625 0.0625 0 0 Z " fill="#F3EFE8" transform="translate(1271.5625,78.9375)"/>
<path d="M0 0 C3.68754757 0.49831724 5.60490662 1.10067643 8 4 C6.25 4.6875 6.25 4.6875 4 5 C1.75 3.6875 1.75 3.6875 0 2 C0 1.34 0 0.68 0 0 Z " fill="#E6E3D8" transform="translate(1064,536)"/>
<path d="M0 0 C0.99 0.33 1.98 0.66 3 1 C2.01 1.66 1.02 2.32 0 3 C-0.72382467 5.05925139 -0.72382467 5.05925139 -1 7 C-2.32 6.67 -3.64 6.34 -5 6 C-5 5.34 -5 4.68 -5 4 C-2.6875 1.8125 -2.6875 1.8125 0 0 Z " fill="#E7E3D8" transform="translate(947,534)"/>
<path d="M0 0 C0.33 0 0.66 0 1 0 C0.67 4.29 0.34 8.58 0 13 C-0.99 12.01 -1.98 11.02 -3 10 C-2.6875 7.3125 -2.6875 7.3125 -2 5 C-1.34 5 -0.68 5 0 5 C0 3.35 0 1.7 0 0 Z " fill="#E0DDD3" transform="translate(882,513)"/>
<path d="M0 0 C4.75 1.875 4.75 1.875 7 3 C6.34 4.32 5.68 5.64 5 7 C3.02 5.35 1.04 3.7 -1 2 C-0.67 1.34 -0.34 0.68 0 0 Z " fill="#E7E3D9" transform="translate(1136,515)"/>
<path d="M0 0 C0.99 0 1.98 0 3 0 C1.79618552 2.49361571 0.54571278 4.68143083 -1 7 C-1.99 6.67 -2.98 6.34 -4 6 C-2.1875 3 -2.1875 3 0 0 Z " fill="#E8E5DA" transform="translate(1263,425)"/>
<path d="M0 0 C0 2.97 0 5.94 0 9 C-0.33 9 -0.66 9 -1 9 C-1 7.02 -1 5.04 -1 3 C-1.99 3 -2.98 3 -4 3 C-4.33 3.66 -4.66 4.32 -5 5 C-5.33 3.68 -5.66 2.36 -6 1 C-3.92446352 0.4465236 -2.15634036 0 0 0 Z " fill="#F4F1EA" transform="translate(733,406)"/>
<path d="M0 0 C1.65 0.33 3.3 0.66 5 1 C4.67 1.99 4.34 2.98 4 4 C0.9375 5.1875 0.9375 5.1875 -2 6 C-1.67 5.01 -1.34 4.02 -1 3 C-0.34 3 0.32 3 1 3 C0.67 2.01 0.34 1.02 0 0 Z " fill="#E3E0D4" transform="translate(965,380)"/>
<path d="M0 0 C1.32 0 2.64 0 4 0 C3.34 1.65 2.68 3.3 2 5 C1.01 5 0.02 5 -1 5 C-1.33 4.01 -1.66 3.02 -2 2 C-1.34 1.34 -0.68 0.68 0 0 Z " fill="#F4F2EA" transform="translate(773,244)"/>
<path d="M0 0 C0.33 0 0.66 0 1 0 C1.05406122 1.93719378 1.09282025 3.87481921 1.125 5.8125 C1.14820313 6.89144531 1.17140625 7.97039062 1.1953125 9.08203125 C1 12 1 12 -1 15 C-1.97798721 11.20431539 -1.92653069 8.4994001 -1.0625 4.6875 C-0.86785156 3.80449219 -0.67320312 2.92148438 -0.47265625 2.01171875 C-0.31667969 1.34785156 -0.16070312 0.68398437 0 0 Z " fill="#D4D2CC" transform="translate(304,179)"/>
<path d="M0 0 C0.66 0.33 1.32 0.66 2 1 C0.515 3.475 0.515 3.475 -1 6 C-3.96175123 5.38722388 -5.38058783 4.74627478 -8 3 C-6.865625 2.690625 -5.73125 2.38125 -4.5625 2.0625 C-1.21224901 1.37075469 -1.21224901 1.37075469 0 0 Z " fill="#E6E3D8" transform="translate(416,157)"/>
<path d="M0 0 C0.99 0.33 1.98 0.66 3 1 C2.67 1.99 2.34 2.98 2 4 C-0.3125 4.6875 -0.3125 4.6875 -3 5 C-4.8125 3.5625 -4.8125 3.5625 -6 2 C-4.02 2 -2.04 2 0 2 C0 1.34 0 0.68 0 0 Z " fill="#E4E1D6" transform="translate(384,104)"/>
<path d="M0 0 C1.32 0 2.64 0 4 0 C3.34 1.32 2.68 2.64 2 4 C0.02 4 -1.96 4 -4 4 C-3.67 3.01 -3.34 2.02 -3 1 C-2.34 1.33 -1.68 1.66 -1 2 C-0.67 1.34 -0.34 0.68 0 0 Z " fill="#F2B810" transform="translate(1552,542)"/>
<path d="M0 0 C0.66 0 1.32 0 2 0 C2 0.66 2 1.32 2 2 C2.66 2.33 3.32 2.66 4 3 C3.01 3.99 2.02 4.98 1 6 C-1.475 5.01 -1.475 5.01 -4 4 C-3.67 3.34 -3.34 2.68 -3 2 C-1.02 2.495 -1.02 2.495 1 3 C0.67 2.01 0.34 1.02 0 0 Z " fill="#E6E2D8" transform="translate(1097,483)"/>
<path d="M0 0 C0 0.66 0 1.32 0 2 C-1.45635371 2.22174933 -2.91522956 2.42698698 -4.375 2.625 C-5.18710937 2.74101562 -5.99921875 2.85703125 -6.8359375 2.9765625 C-7.55007813 2.98429687 -8.26421875 2.99203125 -9 3 C-9.66 2.34 -10.32 1.68 -11 1 C-6.8204355 -1.78637633 -4.85331323 -0.79562512 0 0 Z " fill="#E4E1D7" transform="translate(661,449)"/>
<path d="M0 0 C0.66 0 1.32 0 2 0 C2 0.99 2 1.98 2 3 C4.475 3.99 4.475 3.99 7 5 C3.94736336 5.98120464 2.05263664 5.98120464 -1 5 C-0.67 3.35 -0.34 1.7 0 0 Z " fill="#E5E1D7" transform="translate(717,400)"/>
<path d="M0 0 C0.99 0.33 1.98 0.66 3 1 C2.34 2.65 1.68 4.3 1 6 C-0.32 5.67 -1.64 5.34 -3 5 C-2.625 3.0625 -2.625 3.0625 -2 1 C-1.34 0.67 -0.68 0.34 0 0 Z " fill="#E8E5DA" transform="translate(1151,357)"/>
<path d="M0 0 C2.475 0.99 2.475 0.99 5 2 C5 2.66 5 3.32 5 4 C4.01 4.33 3.02 4.66 2 5 C1.67 6.65 1.34 8.3 1 10 C0.67 10 0.34 10 0 10 C0 6.7 0 3.4 0 0 Z " fill="#F5F3EB" transform="translate(770,339)"/>
<path d="M0 0 C2 3.75 2 3.75 2 6 C1.01 6 0.02 6 -1 6 C-1 5.34 -1 4.68 -1 4 C-1.66 4 -2.32 4 -3 4 C-3.33 4.66 -3.66 5.32 -4 6 C-4.33 5.01 -4.66 4.02 -5 3 C-3.35 2.01 -1.7 1.02 0 0 Z " fill="#E8E4DB" transform="translate(1240,209)"/>
<path d="M0 0 C2.05078125 0.03255208 4.1015625 0.06510417 6.15234375 0.09765625 C6.15234375 0.75765625 6.15234375 1.41765625 6.15234375 2.09765625 C3.50495459 3.55828475 2.25786041 4.09765625 -0.84765625 4.09765625 C-0.84765625 3.43765625 -0.84765625 2.77765625 -0.84765625 2.09765625 C-1.50765625 1.76765625 -2.16765625 1.43765625 -2.84765625 1.09765625 C-1.84765625 0.09765625 -1.84765625 0.09765625 0 0 Z " fill="#E4E0D6" transform="translate(223.84765625,196.90234375)"/>
<path d="M0 0 C0.99 0.33 1.98 0.66 3 1 C3.33 2.98 3.66 4.96 4 7 C3.01 6.67 2.02 6.34 1 6 C1 5.34 1 4.68 1 4 C0.34 4 -0.32 4 -1 4 C-0.67 2.68 -0.34 1.36 0 0 Z " fill="#E6E3D9" transform="translate(108,103)"/>
<path d="M0 0 C-2.125 1.625 -2.125 1.625 -5 3 C-8.3125 2.1875 -8.3125 2.1875 -11 1 C-11 0.67 -11 0.34 -11 0 C-3.57142857 -1.28571429 -3.57142857 -1.28571429 0 0 Z " fill="#2F2D2A" transform="translate(1071,588)"/>
<path d="M0 0 C0.33 0.66 0.66 1.32 1 2 C1.66 2.33 2.32 2.66 3 3 C-0.465 4.485 -0.465 4.485 -4 6 C-4 5.01 -4 4.02 -4 3 C-2 1.3125 -2 1.3125 0 0 Z " fill="#E2DFD8" transform="translate(1101,572)"/>
<path d="M0 0 C3.3 0.33 6.6 0.66 10 1 C10 1.66 10 2.32 10 3 C6.7 3 3.4 3 0 3 C0 2.01 0 1.02 0 0 Z " fill="#F0B60E" transform="translate(1497,550)"/>
<path d="M0 0 C-2.97 2.475 -2.97 2.475 -6 5 C-6.66 4.67 -7.32 4.34 -8 4 C-7 1 -7 1 -5.125 -0.25 C-3 -1 -3 -1 0 0 Z " fill="#E3E0D5" transform="translate(999,379)"/>
<path d="M0 0 C0.66 0 1.32 0 2 0 C2.33 3.3 2.66 6.6 3 10 C1 9 1 9 0.33203125 7.1875 C0.16058594 6.465625 -0.01085937 5.74375 -0.1875 5 C-0.36667969 4.278125 -0.54585937 3.55625 -0.73046875 2.8125 C-0.86388672 1.9153125 -0.86388672 1.9153125 -1 1 C-0.67 0.67 -0.34 0.34 0 0 Z " fill="#E3E0D6" transform="translate(689,345)"/>
<path d="M0 0 C0.33 0.99 0.66 1.98 1 3 C-0.32 3 -1.64 3 -3 3 C-3 3.66 -3 4.32 -3 5 C-3.66 5 -4.32 5 -5 5 C-5.33 3.68 -5.66 2.36 -6 1 C-3 0 -3 0 0 0 Z " fill="#E6E3DA" transform="translate(1123,330)"/>
<path d="M0 0 C0.99 0 1.98 0 3 0 C1.54744301 3.82946843 -0.42895561 5.12050295 -4 7 C-2.79618552 4.50638429 -1.54571278 2.31856917 0 0 Z " fill="#E6E3D7" transform="translate(850,320)"/>
<path d="M0 0 C0.33 0.66 0.66 1.32 1 2 C0.67 2.66 0.34 3.32 0 4 C-2.64 4 -5.28 4 -8 4 C-5.37801226 1.84622436 -3.35595828 0.59927826 0 0 Z " fill="#E2DDD3" transform="translate(136,293)"/>
<path d="M0 0 C2.09350689 3.4019487 2.17942163 6.05272412 2 10 C1.01 10.495 1.01 10.495 0 11 C-0.19491452 9.54263913 -0.38069358 8.08405407 -0.5625 6.625 C-0.66691406 5.81289062 -0.77132813 5.00078125 -0.87890625 4.1640625 C-1 2 -1 2 0 0 Z " fill="#31312B" transform="translate(490,185)"/>
<path d="M0 0 C0.66 0 1.32 0 2 0 C2 0.66 2 1.32 2 2 C2.66 2 3.32 2 4 2 C4 2.66 4 3.32 4 4 C3.34 4 2.68 4 2 4 C2 4.99 2 5.98 2 7 C1.01 6.67 0.02 6.34 -1 6 C-0.67 4.02 -0.34 2.04 0 0 Z " fill="#E6E3D7" transform="translate(283,181)"/>
<path d="M0 0 C1.65 0 3.3 0 5 0 C3.8125 2 3.8125 2 2 4 C-0.6875 4.25 -0.6875 4.25 -3 4 C-2.34 3.67 -1.68 3.34 -1 3 C-0.67 2.01 -0.34 1.02 0 0 Z " fill="#141310" transform="translate(229,583)"/>
<path d="M0 0 C0.99 0 1.98 0 3 0 C3.99 2.31 4.98 4.62 6 7 C5.01 7 4.02 7 3 7 C3 6.34 3 5.68 3 5 C2.34 4.67 1.68 4.34 1 4 C1.33 3.34 1.66 2.68 2 2 C1.34 2 0.68 2 0 2 C0 1.34 0 0.68 0 0 Z " fill="#E6E2D9" transform="translate(1054,577)"/>
<path d="M0 0 C3.68754757 0.49831724 5.60490662 1.10067643 8 4 C5.36 3.67 2.72 3.34 0 3 C0 2.01 0 1.02 0 0 Z " fill="#E5E2D7" transform="translate(1054,554)"/>
<path d="M0 0 C1.67542976 0.28604898 3.34385343 0.61781233 5 1 C4.34 2.32 3.68 3.64 3 5 C2.01 4.67 1.02 4.34 0 4 C-0.33 3.01 -0.66 2.02 -1 1 C-0.67 0.67 -0.34 0.34 0 0 Z " fill="#E6E3D9" transform="translate(429,541)"/>
<path d="M0 0 C2.475 0.495 2.475 0.495 5 1 C5 1.99 5 2.98 5 4 C4.01 4.33 3.02 4.66 2 5 C1.34 4.67 0.68 4.34 0 4 C0 2.68 0 1.36 0 0 Z " fill="#E5E2D8" transform="translate(646,480)"/>
<path d="M0 0 C0.99 0 1.98 0 3 0 C3 0.66 3 1.32 3 2 C3.61875 2.28875 4.2375 2.5775 4.875 2.875 C7 4 7 4 9 6 C5.51669784 5.35494404 2.90567134 4.01782732 0 2 C0 1.34 0 0.68 0 0 Z " fill="#E3E0D5" transform="translate(508,429)"/>
<path d="M0 0 C0.66 0 1.32 0 2 0 C2.6875 3.3125 2.6875 3.3125 3 7 C2.01 7.99 1.02 8.98 0 10 C0 6.7 0 3.4 0 0 Z " fill="#13120D" transform="translate(751,175)"/>
<path d="M0 0 C0.598125 0.350625 1.19625 0.70125 1.8125 1.0625 C0.8225 2.5475 0.8225 2.5475 -0.1875 4.0625 C-0.1875 3.4025 -0.1875 2.7425 -0.1875 2.0625 C-2.1675 2.0625 -4.1475 2.0625 -6.1875 2.0625 C-4.66896708 -0.97456585 -3.05066334 -1.30742714 0 0 Z " fill="#E6E2D8" transform="translate(246.1875,162.9375)"/>
<path d="M0 0 C0.66 0.33 1.32 0.66 2 1 C1.01 2.98 0.02 4.96 -1 7 C-2.32 7 -3.64 7 -5 7 C-4.67 6.01 -4.34 5.02 -4 4 C-3.01 4 -2.02 4 -1 4 C-0.67 2.68 -0.34 1.36 0 0 Z " fill="#E5E3D8" transform="translate(1347,154)"/>
<path d="M0 0 C0.99 0.99 1.98 1.98 3 3 C2.01 4.485 2.01 4.485 1 6 C0.34 6 -0.32 6 -1 6 C-1.33 4.35 -1.66 2.7 -2 1 C-1.34 0.67 -0.68 0.34 0 0 Z " fill="#F3EFE7" transform="translate(420,97)"/>
<path d="M0 0 C0.33 0 0.66 0 1 0 C1 1.98 1 3.96 1 6 C1.99 6.33 2.98 6.66 4 7 C4 7.33 4 7.66 4 8 C2.35 8 0.7 8 -1 8 C-0.67 5.36 -0.34 2.72 0 0 Z " fill="#E2DFD8" transform="translate(620,578)"/>
<path d="M0 0 C2.64 0 5.28 0 8 0 C7.67 0.99 7.34 1.98 7 3 C4.69 2.67 2.38 2.34 0 2 C0 1.34 0 0.68 0 0 Z " fill="#F4F1E8" transform="translate(931,517)"/>
<path d="M0 0 C0.66 0.33 1.32 0.66 2 1 C2 2.32 2 3.64 2 5 C1.01 5.33 0.02 5.66 -1 6 C-1.99 4.68 -2.98 3.36 -4 2 C-3.01 2 -2.02 2 -1 2 C-0.67 1.34 -0.34 0.68 0 0 Z " fill="#E8E5DB" transform="translate(951,505)"/>
<path d="M0 0 C0 0.99 0 1.98 0 3 C-0.66 3 -1.32 3 -2 3 C-2 3.66 -2 4.32 -2 5 C-2.99 4.67 -3.98 4.34 -5 4 C-5 3.01 -5 2.02 -5 1 C-3 0 -3 0 0 0 Z " fill="#E4E2D6" transform="translate(1283,475)"/>
<path d="M0 0 C0.33 0.99 0.66 1.98 1 3 C1.66 3 2.32 3 3 3 C2.45276317 6.37462715 1.9451 8.08235 0 11 C0 7.37 0 3.74 0 0 Z " fill="#F6F2EA" transform="translate(1060,427)"/>
<path d="M0 0 C2.9375 0.375 2.9375 0.375 6 1 C6.33 1.66 6.66 2.32 7 3 C6.67 3.66 6.34 4.32 6 5 C5.34 5 4.68 5 4 5 C4 4.34 4 3.68 4 3 C2.68 2.67 1.36 2.34 0 2 C0 1.34 0 0.68 0 0 Z " fill="#E6E2D8" transform="translate(967,414)"/>
<path d="M0 0 C2.31 0.33 4.62 0.66 7 1 C6.67 1.99 6.34 2.98 6 4 C4.35 3.67 2.7 3.34 1 3 C0.67 2.01 0.34 1.02 0 0 Z " fill="#E6E3D7" transform="translate(696,369)"/>
<path d="M0 0 C0.99 0 1.98 0 3 0 C3 1.98 3 3.96 3 6 C1.35 6 -0.3 6 -2 6 C-1.34 5.67 -0.68 5.34 0 5 C0 3.35 0 1.7 0 0 Z " fill="#E6E3DA" transform="translate(1012,353)"/>
<path d="M0 0 C0.66 1.32 1.32 2.64 2 4 C1.67 4.66 1.34 5.32 1 6 C1.99 6 2.98 6 4 6 C3.67 6.99 3.34 7.98 3 9 C2.01 9 1.02 9 0 9 C0 6.03 0 3.06 0 0 Z " fill="#F4F2E9" transform="translate(769,329)"/>
<path d="M0 0 C-3.44069624 2.29379749 -4.72290301 3 -9 3 C-9 2.34 -9 1.68 -9 1 C-3.375 -1.125 -3.375 -1.125 0 0 Z " fill="#E8E5DB" transform="translate(1094,325)"/>
<path d="M0 0 C0.66 0.66 1.32 1.32 2 2 C0.12050295 5.57104439 -1.17053157 7.54744301 -5 9 C-5 8.34 -5 7.68 -5 7 C-3.66666667 5.66666667 -2.33333333 4.33333333 -1 3 C-0.67 2.01 -0.34 1.02 0 0 Z " fill="#E5E3D8" transform="translate(782,295)"/>
<path d="M0 0 C0.66 0.99 1.32 1.98 2 3 C1.34 3 0.68 3 0 3 C0.33 4.65 0.66 6.3 1 8 C0.01 7.67 -0.98 7.34 -2 7 C-2 5.02 -2 3.04 -2 1 C-1.34 0.67 -0.68 0.34 0 0 Z " fill="#E5E2D8" transform="translate(703,284)"/>
<path d="M0 0 C1.98 0.66 3.96 1.32 6 2 C6 2.66 6 3.32 6 4 C4.35 4.33 2.7 4.66 1 5 C1 4.34 1 3.68 1 3 C0.34 2.67 -0.32 2.34 -1 2 C-0.67 1.34 -0.34 0.68 0 0 Z " fill="#E3E0D5" transform="translate(538,278)"/>
<path d="M0 0 C0.99 0 1.98 0 3 0 C3 1.98 3 3.96 3 6 C2.34 6 1.68 6 1 6 C0.34 4.35 -0.32 2.7 -1 1 C-0.67 0.67 -0.34 0.34 0 0 Z " fill="#F4F1EB" transform="translate(742,248)"/>
<path d="M0 0 C3 1 3 1 5 4 C4.67 4.99 4.34 5.98 4 7 C2 5.1875 2 5.1875 0 3 C0 2.01 0 1.02 0 0 Z " fill="#E5E2D7" transform="translate(120,238)"/>
<path d="M0 0 C0.33 0 0.66 0 1 0 C1.144375 0.928125 1.28875 1.85625 1.4375 2.8125 C1.92100111 6.00725111 1.92100111 6.00725111 3 9 C2.34 9.99 1.68 10.98 1 12 C-0.26237731 9.47524538 -0.09856404 7.68799534 -0.0625 4.875 C-0.05347656 3.96492187 -0.04445313 3.05484375 -0.03515625 2.1171875 C-0.02355469 1.41851562 -0.01195312 0.71984375 0 0 Z " fill="#33322D" transform="translate(749,194)"/>
<path d="M0 0 C2.97 0.495 2.97 0.495 6 1 C6 1.66 6 2.32 6 3 C3.36 3 0.72 3 -2 3 C-1.34 2.01 -0.68 1.02 0 0 Z " fill="#E6E4DA" transform="translate(719,188)"/>
<path d="M0 0 C-5.625 3 -5.625 3 -9 3 C-6.27596221 -1.08605669 -4.4643819 -1.38549783 0 0 Z " fill="#171612" transform="translate(1090,583)"/>
<path d="M0 0 C2.475 0.495 2.475 0.495 5 1 C5 1.99 5 2.98 5 4 C4.01 4.33 3.02 4.66 2 5 C1.34 3.35 0.68 1.7 0 0 Z " fill="#13110E" transform="translate(979,579)"/>
<path d="M0 0 C0.33 0.66 0.66 1.32 1 2 C1.99 2.33 2.98 2.66 4 3 C4 3.66 4 4.32 4 5 C2 6.625 2 6.625 0 8 C0 5.36 0 2.72 0 0 Z " fill="#F5F2E9" transform="translate(790,571)"/>
<path d="M0 0 C0.99 0 1.98 0 3 0 C2.34 1.65 1.68 3.3 1 5 C0.01 5 -0.98 5 -2 5 C-1.125 1.125 -1.125 1.125 0 0 Z " fill="#E0DCD2" transform="translate(1372,557)"/>
<path d="M0 0 C1.98 0 3.96 0 6 0 C4.68 1.32 3.36 2.64 2 4 C1.01 3.67 0.02 3.34 -1 3 C-0.67 2.01 -0.34 1.02 0 0 Z " fill="#E5E1D8" transform="translate(1255,544)"/>
<path d="M0 0 C0.66 0.33 1.32 0.66 2 1 C1.01 1 0.02 1 -1 1 C-0.67 0.67 -0.34 0.34 0 0 Z M-6 2 C-4.35 2 -2.7 2 -1 2 C-1.99 3.485 -1.99 3.485 -3 5 C-4.32 4.67 -5.64 4.34 -7 4 C-6.67 3.34 -6.34 2.68 -6 2 Z " fill="#E2DED5" transform="translate(1097,510)"/>
<path d="M0 0 C0.33 1.32 0.66 2.64 1 4 C0.360625 4.12375 -0.27875 4.2475 -0.9375 4.375 C-1.9584375 4.684375 -1.9584375 4.684375 -3 5 C-3.33 5.66 -3.66 6.32 -4 7 C-3.6875 4.625 -3.6875 4.625 -3 2 C-2.01 1.34 -1.02 0.68 0 0 Z " fill="#DCD8CE" transform="translate(924,505)"/>
<path d="M0 0 C2.475 0.99 2.475 0.99 5 2 C5 2.66 5 3.32 5 4 C4.01 4.33 3.02 4.66 2 5 C1.01 4.34 0.02 3.68 -1 3 C-0.67 2.01 -0.34 1.02 0 0 Z " fill="#E5E2D7" transform="translate(656,478)"/>
<path d="M0 0 C1.65 0.33 3.3 0.66 5 1 C5 1.99 5 2.98 5 4 C2.03 3.505 2.03 3.505 -1 3 C-0.67 2.01 -0.34 1.02 0 0 Z " fill="#E3DFD5" transform="translate(138,464)"/>
<path d="M0 0 C0.66 0.33 1.32 0.66 2 1 C2 2.65 2 4.3 2 6 C1.01 6.495 1.01 6.495 0 7 C0 6.34 0 5.68 0 5 C-0.66 5 -1.32 5 -2 5 C-2 4.34 -2 3.68 -2 3 C-1.34 3 -0.68 3 0 3 C0 2.01 0 1.02 0 0 Z " fill="#E6E3D8" transform="translate(1013,458)"/>
<path d="M0 0 C0.33 0.66 0.66 1.32 1 2 C2.64363134 2.72159424 4.31050386 3.39351421 6 4 C5.67 4.66 5.34 5.32 5 6 C2.69 5.34 0.38 4.68 -2 4 C-1.34 2.68 -0.68 1.36 0 0 Z " fill="#E7E5DA" transform="translate(842,415)"/>
<path d="M0 0 C-0.33 1.32 -0.66 2.64 -1 4 C-3.97 3.505 -3.97 3.505 -7 3 C-7 2.34 -7 1.68 -7 1 C-2.25 0 -2.25 0 0 0 Z " fill="#E7E3DA" transform="translate(1152,375)"/>
<path d="M0 0 C2.97 0.495 2.97 0.495 6 1 C5.67 2.32 5.34 3.64 5 5 C4.34 5 3.68 5 3 5 C1.375 2.5 1.375 2.5 0 0 Z " fill="#E5E1D7" transform="translate(816,316)"/>
<path d="M0 0 C0.99 0.99 1.98 1.98 3 3 C2.01 3.495 2.01 3.495 1 4 C0.34227572 7.02934491 0.34227572 7.02934491 0 10 C-0.33 10 -0.66 10 -1 10 C-1.02689216 8.52093108 -1.04634621 7.04172517 -1.0625 5.5625 C-1.07410156 4.73878906 -1.08570313 3.91507812 -1.09765625 3.06640625 C-1 1 -1 1 0 0 Z " fill="#F3F0E8" transform="translate(648,294)"/>
<path d="M0 0 C2.97 0.495 2.97 0.495 6 1 C6 1.66 6 2.32 6 3 C2.25 4.125 2.25 4.125 0 3 C0 2.01 0 1.02 0 0 Z " fill="#E6E3D8" transform="translate(837,276)"/>
<path d="M0 0 C0.33 0.66 0.66 1.32 1 2 C1.66 2 2.32 2 3 2 C2.34 3.98 1.68 5.96 1 8 C0.34 7.34 -0.32 6.68 -1 6 C-0.625 2.875 -0.625 2.875 0 0 Z " fill="#292824" transform="translate(587,271)"/>
<path d="M0 0 C0.66 0 1.32 0 2 0 C2.66 1.98 3.32 3.96 4 6 C3.34 6 2.68 6 2 6 C2 5.34 2 4.68 2 4 C0.68 3.67 -0.64 3.34 -2 3 C-1.34 2.01 -0.68 1.02 0 0 Z " fill="#E4E1D6" transform="translate(422,257)"/>
<path d="M0 0 C2.35953094 2.35953094 2.49141413 3.77895617 3 7 C2.01 7.66 1.02 8.32 0 9 C0 6.03 0 3.06 0 0 Z " fill="#F6F3EE" transform="translate(758,208)"/>
<path d="M0 0 C2.475 0.495 2.475 0.495 5 1 C5.33 1.99 5.66 2.98 6 4 C4.35 3.67 2.7 3.34 1 3 C0.67 2.01 0.34 1.02 0 0 Z " fill="#E1DED3" transform="translate(207,126)"/>
</svg>
